<?xml version="1.0" encoding="utf-8" standalone="no"?>
<!DOCTYPE svg PUBLIC "-//W3C//DTD SVG 1.1//EN"
  "http://www.w3.org/Graphics/SVG/1.1/DTD/svg11.dtd">
<!-- Created with matplotlib (https://matplotlib.org/) -->
<svg height="674.648125pt" version="1.1" viewBox="0 0 963.50625 674.648125" width="963.50625pt" xmlns="http://www.w3.org/2000/svg" xmlns:xlink="http://www.w3.org/1999/xlink">
 <defs>
  <style type="text/css">
*{stroke-linecap:butt;stroke-linejoin:round;}
  </style>
 </defs>
 <g id="figure_1">
  <g id="patch_1">
   <path d="M 0 674.648125 
L 963.50625 674.648125 
L 963.50625 0 
L 0 0 
z
" style="fill:#ffffff;"/>
  </g>
  <g id="axes_1">
   <g id="patch_2">
    <path d="M 40.603125 583.92 
L 933.403125 583.92 
L 933.403125 84.96 
L 40.603125 84.96 
z
" style="fill:#ffffff;"/>
   </g>
   <g id="matplotlib.axis_1">
    <g id="xtick_1">
     <g id="line2d_1">
      <path clip-path="url(#p526fd73473)" d="M 40.603125 583.92 
L 40.603125 84.96 
" style="fill:none;stroke:#b0b0b0;stroke-linecap:square;stroke-width:0.8;"/>
     </g>
     <g id="line2d_2">
      <defs>
       <path d="M 0 0 
L 0 3.5 
" id="m99297055cc" style="stroke:#000000;stroke-width:0.8;"/>
      </defs>
      <g>
       <use style="stroke:#000000;stroke-width:0.8;" x="40.603125" xlink:href="#m99297055cc" y="583.92"/>
      </g>
     </g>
     <g id="text_1">
      <!-- 07.06.18 00:00 -->
      <defs>
       <path d="M 31.78125 66.40625 
Q 24.171875 66.40625 20.328125 58.90625 
Q 16.5 51.421875 16.5 36.375 
Q 16.5 21.390625 20.328125 13.890625 
Q 24.171875 6.390625 31.78125 6.390625 
Q 39.453125 6.390625 43.28125 13.890625 
Q 47.125 21.390625 47.125 36.375 
Q 47.125 51.421875 43.28125 58.90625 
Q 39.453125 66.40625 31.78125 66.40625 
z
M 31.78125 74.21875 
Q 44.046875 74.21875 50.515625 64.515625 
Q 56.984375 54.828125 56.984375 36.375 
Q 56.984375 17.96875 50.515625 8.265625 
Q 44.046875 -1.421875 31.78125 -1.421875 
Q 19.53125 -1.421875 13.0625 8.265625 
Q 6.59375 17.96875 6.59375 36.375 
Q 6.59375 54.828125 13.0625 64.515625 
Q 19.53125 74.21875 31.78125 74.21875 
z
" id="DejaVuSans-48"/>
       <path d="M 8.203125 72.90625 
L 55.078125 72.90625 
L 55.078125 68.703125 
L 28.609375 0 
L 18.3125 0 
L 43.21875 64.59375 
L 8.203125 64.59375 
z
" id="DejaVuSans-55"/>
       <path d="M 10.6875 12.40625 
L 21 12.40625 
L 21 0 
L 10.6875 0 
z
" id="DejaVuSans-46"/>
       <path d="M 33.015625 40.375 
Q 26.375 40.375 22.484375 35.828125 
Q 18.609375 31.296875 18.609375 23.390625 
Q 18.609375 15.53125 22.484375 10.953125 
Q 26.375 6.390625 33.015625 6.390625 
Q 39.65625 6.390625 43.53125 10.953125 
Q 47.40625 15.53125 47.40625 23.390625 
Q 47.40625 31.296875 43.53125 35.828125 
Q 39.65625 40.375 33.015625 40.375 
z
M 52.59375 71.296875 
L 52.59375 62.3125 
Q 48.875 64.0625 45.09375 64.984375 
Q 41.3125 65.921875 37.59375 65.921875 
Q 27.828125 65.921875 22.671875 59.328125 
Q 17.53125 52.734375 16.796875 39.40625 
Q 19.671875 43.65625 24.015625 45.921875 
Q 28.375 48.1875 33.59375 48.1875 
Q 44.578125 48.1875 50.953125 41.515625 
Q 57.328125 34.859375 57.328125 23.390625 
Q 57.328125 12.15625 50.6875 5.359375 
Q 44.046875 -1.421875 33.015625 -1.421875 
Q 20.359375 -1.421875 13.671875 8.265625 
Q 6.984375 17.96875 6.984375 36.375 
Q 6.984375 53.65625 15.1875 63.9375 
Q 23.390625 74.21875 37.203125 74.21875 
Q 40.921875 74.21875 44.703125 73.484375 
Q 48.484375 72.75 52.59375 71.296875 
z
" id="DejaVuSans-54"/>
       <path d="M 12.40625 8.296875 
L 28.515625 8.296875 
L 28.515625 63.921875 
L 10.984375 60.40625 
L 10.984375 69.390625 
L 28.421875 72.90625 
L 38.28125 72.90625 
L 38.28125 8.296875 
L 54.390625 8.296875 
L 54.390625 0 
L 12.40625 0 
z
" id="DejaVuSans-49"/>
       <path d="M 31.78125 34.625 
Q 24.75 34.625 20.71875 30.859375 
Q 16.703125 27.09375 16.703125 20.515625 
Q 16.703125 13.921875 20.71875 10.15625 
Q 24.75 6.390625 31.78125 6.390625 
Q 38.8125 6.390625 42.859375 10.171875 
Q 46.921875 13.96875 46.921875 20.515625 
Q 46.921875 27.09375 42.890625 30.859375 
Q 38.875 34.625 31.78125 34.625 
z
M 21.921875 38.8125 
Q 15.578125 40.375 12.03125 44.71875 
Q 8.5 49.078125 8.5 55.328125 
Q 8.5 64.0625 14.71875 69.140625 
Q 20.953125 74.21875 31.78125 74.21875 
Q 42.671875 74.21875 48.875 69.140625 
Q 55.078125 64.0625 55.078125 55.328125 
Q 55.078125 49.078125 51.53125 44.71875 
Q 48 40.375 41.703125 38.8125 
Q 48.828125 37.15625 52.796875 32.3125 
Q 56.78125 27.484375 56.78125 20.515625 
Q 56.78125 9.90625 50.3125 4.234375 
Q 43.84375 -1.421875 31.78125 -1.421875 
Q 19.734375 -1.421875 13.25 4.234375 
Q 6.78125 9.90625 6.78125 20.515625 
Q 6.78125 27.484375 10.78125 32.3125 
Q 14.796875 37.15625 21.921875 38.8125 
z
M 18.3125 54.390625 
Q 18.3125 48.734375 21.84375 45.5625 
Q 25.390625 42.390625 31.78125 42.390625 
Q 38.140625 42.390625 41.71875 45.5625 
Q 45.3125 48.734375 45.3125 54.390625 
Q 45.3125 60.0625 41.71875 63.234375 
Q 38.140625 66.40625 31.78125 66.40625 
Q 25.390625 66.40625 21.84375 63.234375 
Q 18.3125 60.0625 18.3125 54.390625 
z
" id="DejaVuSans-56"/>
       <path id="DejaVuSans-32"/>
       <path d="M 11.71875 12.40625 
L 22.015625 12.40625 
L 22.015625 0 
L 11.71875 0 
z
M 11.71875 51.703125 
L 22.015625 51.703125 
L 22.015625 39.3125 
L 11.71875 39.3125 
z
" id="DejaVuSans-58"/>
      </defs>
      <g transform="translate(43.3625 667.448125)rotate(-90)scale(0.1 -0.1)">
       <use xlink:href="#DejaVuSans-48"/>
       <use x="63.623047" xlink:href="#DejaVuSans-55"/>
       <use x="127.246094" xlink:href="#DejaVuSans-46"/>
       <use x="159.033203" xlink:href="#DejaVuSans-48"/>
       <use x="222.65625" xlink:href="#DejaVuSans-54"/>
       <use x="286.279297" xlink:href="#DejaVuSans-46"/>
       <use x="318.066406" xlink:href="#DejaVuSans-49"/>
       <use x="381.689453" xlink:href="#DejaVuSans-56"/>
       <use x="445.3125" xlink:href="#DejaVuSans-32"/>
       <use x="477.099609" xlink:href="#DejaVuSans-48"/>
       <use x="540.722656" xlink:href="#DejaVuSans-48"/>
       <use x="604.345703" xlink:href="#DejaVuSans-58"/>
       <use x="638.037109" xlink:href="#DejaVuSans-48"/>
       <use x="701.660156" xlink:href="#DejaVuSans-48"/>
      </g>
     </g>
    </g>
    <g id="xtick_2">
     <g id="line2d_3">
      <path clip-path="url(#p526fd73473)" d="M 79.420516 583.92 
L 79.420516 84.96 
" style="fill:none;stroke:#b0b0b0;stroke-linecap:square;stroke-width:0.8;"/>
     </g>
     <g id="line2d_4">
      <g>
       <use style="stroke:#000000;stroke-width:0.8;" x="79.420516" xlink:href="#m99297055cc" y="583.92"/>
      </g>
     </g>
     <g id="text_2">
      <!-- 07.06.18 02:04 -->
      <defs>
       <path d="M 19.1875 8.296875 
L 53.609375 8.296875 
L 53.609375 0 
L 7.328125 0 
L 7.328125 8.296875 
Q 12.9375 14.109375 22.625 23.890625 
Q 32.328125 33.6875 34.8125 36.53125 
Q 39.546875 41.84375 41.421875 45.53125 
Q 43.3125 49.21875 43.3125 52.78125 
Q 43.3125 58.59375 39.234375 62.25 
Q 35.15625 65.921875 28.609375 65.921875 
Q 23.96875 65.921875 18.8125 64.3125 
Q 13.671875 62.703125 7.8125 59.421875 
L 7.8125 69.390625 
Q 13.765625 71.78125 18.9375 73 
Q 24.125 74.21875 28.421875 74.21875 
Q 39.75 74.21875 46.484375 68.546875 
Q 53.21875 62.890625 53.21875 53.421875 
Q 53.21875 48.921875 51.53125 44.890625 
Q 49.859375 40.875 45.40625 35.40625 
Q 44.1875 33.984375 37.640625 27.21875 
Q 31.109375 20.453125 19.1875 8.296875 
z
" id="DejaVuSans-50"/>
       <path d="M 37.796875 64.3125 
L 12.890625 25.390625 
L 37.796875 25.390625 
z
M 35.203125 72.90625 
L 47.609375 72.90625 
L 47.609375 25.390625 
L 58.015625 25.390625 
L 58.015625 17.1875 
L 47.609375 17.1875 
L 47.609375 0 
L 37.796875 0 
L 37.796875 17.1875 
L 4.890625 17.1875 
L 4.890625 26.703125 
z
" id="DejaVuSans-52"/>
      </defs>
      <g transform="translate(82.179891 667.448125)rotate(-90)scale(0.1 -0.1)">
       <use xlink:href="#DejaVuSans-48"/>
       <use x="63.623047" xlink:href="#DejaVuSans-55"/>
       <use x="127.246094" xlink:href="#DejaVuSans-46"/>
       <use x="159.033203" xlink:href="#DejaVuSans-48"/>
       <use x="222.65625" xlink:href="#DejaVuSans-54"/>
       <use x="286.279297" xlink:href="#DejaVuSans-46"/>
       <use x="318.066406" xlink:href="#DejaVuSans-49"/>
       <use x="381.689453" xlink:href="#DejaVuSans-56"/>
       <use x="445.3125" xlink:href="#DejaVuSans-32"/>
       <use x="477.099609" xlink:href="#DejaVuSans-48"/>
       <use x="540.722656" xlink:href="#DejaVuSans-50"/>
       <use x="604.345703" xlink:href="#DejaVuSans-58"/>
       <use x="638.037109" xlink:href="#DejaVuSans-48"/>
       <use x="701.660156" xlink:href="#DejaVuSans-52"/>
      </g>
     </g>
    </g>
    <g id="xtick_3">
     <g id="line2d_5">
      <path clip-path="url(#p526fd73473)" d="M 118.237908 583.92 
L 118.237908 84.96 
" style="fill:none;stroke:#b0b0b0;stroke-linecap:square;stroke-width:0.8;"/>
     </g>
     <g id="line2d_6">
      <g>
       <use style="stroke:#000000;stroke-width:0.8;" x="118.237908" xlink:href="#m99297055cc" y="583.92"/>
      </g>
     </g>
     <g id="text_3">
      <!-- 07.06.18 04:09 -->
      <defs>
       <path d="M 10.984375 1.515625 
L 10.984375 10.5 
Q 14.703125 8.734375 18.5 7.8125 
Q 22.3125 6.890625 25.984375 6.890625 
Q 35.75 6.890625 40.890625 13.453125 
Q 46.046875 20.015625 46.78125 33.40625 
Q 43.953125 29.203125 39.59375 26.953125 
Q 35.25 24.703125 29.984375 24.703125 
Q 19.046875 24.703125 12.671875 31.3125 
Q 6.296875 37.9375 6.296875 49.421875 
Q 6.296875 60.640625 12.9375 67.421875 
Q 19.578125 74.21875 30.609375 74.21875 
Q 43.265625 74.21875 49.921875 64.515625 
Q 56.59375 54.828125 56.59375 36.375 
Q 56.59375 19.140625 48.40625 8.859375 
Q 40.234375 -1.421875 26.421875 -1.421875 
Q 22.703125 -1.421875 18.890625 -0.6875 
Q 15.09375 0.046875 10.984375 1.515625 
z
M 30.609375 32.421875 
Q 37.25 32.421875 41.125 36.953125 
Q 45.015625 41.5 45.015625 49.421875 
Q 45.015625 57.28125 41.125 61.84375 
Q 37.25 66.40625 30.609375 66.40625 
Q 23.96875 66.40625 20.09375 61.84375 
Q 16.21875 57.28125 16.21875 49.421875 
Q 16.21875 41.5 20.09375 36.953125 
Q 23.96875 32.421875 30.609375 32.421875 
z
" id="DejaVuSans-57"/>
      </defs>
      <g transform="translate(120.997283 667.448125)rotate(-90)scale(0.1 -0.1)">
       <use xlink:href="#DejaVuSans-48"/>
       <use x="63.623047" xlink:href="#DejaVuSans-55"/>
       <use x="127.246094" xlink:href="#DejaVuSans-46"/>
       <use x="159.033203" xlink:href="#DejaVuSans-48"/>
       <use x="222.65625" xlink:href="#DejaVuSans-54"/>
       <use x="286.279297" xlink:href="#DejaVuSans-46"/>
       <use x="318.066406" xlink:href="#DejaVuSans-49"/>
       <use x="381.689453" xlink:href="#DejaVuSans-56"/>
       <use x="445.3125" xlink:href="#DejaVuSans-32"/>
       <use x="477.099609" xlink:href="#DejaVuSans-48"/>
       <use x="540.722656" xlink:href="#DejaVuSans-52"/>
       <use x="604.345703" xlink:href="#DejaVuSans-58"/>
       <use x="638.037109" xlink:href="#DejaVuSans-48"/>
       <use x="701.660156" xlink:href="#DejaVuSans-57"/>
      </g>
     </g>
    </g>
    <g id="xtick_4">
     <g id="line2d_7">
      <path clip-path="url(#p526fd73473)" d="M 157.055299 583.92 
L 157.055299 84.96 
" style="fill:none;stroke:#b0b0b0;stroke-linecap:square;stroke-width:0.8;"/>
     </g>
     <g id="line2d_8">
      <g>
       <use style="stroke:#000000;stroke-width:0.8;" x="157.055299" xlink:href="#m99297055cc" y="583.92"/>
      </g>
     </g>
     <g id="text_4">
      <!-- 07.06.18 06:14 -->
      <g transform="translate(159.814674 667.448125)rotate(-90)scale(0.1 -0.1)">
       <use xlink:href="#DejaVuSans-48"/>
       <use x="63.623047" xlink:href="#DejaVuSans-55"/>
       <use x="127.246094" xlink:href="#DejaVuSans-46"/>
       <use x="159.033203" xlink:href="#DejaVuSans-48"/>
       <use x="222.65625" xlink:href="#DejaVuSans-54"/>
       <use x="286.279297" xlink:href="#DejaVuSans-46"/>
       <use x="318.066406" xlink:href="#DejaVuSans-49"/>
       <use x="381.689453" xlink:href="#DejaVuSans-56"/>
       <use x="445.3125" xlink:href="#DejaVuSans-32"/>
       <use x="477.099609" xlink:href="#DejaVuSans-48"/>
       <use x="540.722656" xlink:href="#DejaVuSans-54"/>
       <use x="604.345703" xlink:href="#DejaVuSans-58"/>
       <use x="638.037109" xlink:href="#DejaVuSans-49"/>
       <use x="701.660156" xlink:href="#DejaVuSans-52"/>
      </g>
     </g>
    </g>
    <g id="xtick_5">
     <g id="line2d_9">
      <path clip-path="url(#p526fd73473)" d="M 195.87269 583.92 
L 195.87269 84.96 
" style="fill:none;stroke:#b0b0b0;stroke-linecap:square;stroke-width:0.8;"/>
     </g>
     <g id="line2d_10">
      <g>
       <use style="stroke:#000000;stroke-width:0.8;" x="195.87269" xlink:href="#m99297055cc" y="583.92"/>
      </g>
     </g>
     <g id="text_5">
      <!-- 07.06.18 08:19 -->
      <g transform="translate(198.632065 667.448125)rotate(-90)scale(0.1 -0.1)">
       <use xlink:href="#DejaVuSans-48"/>
       <use x="63.623047" xlink:href="#DejaVuSans-55"/>
       <use x="127.246094" xlink:href="#DejaVuSans-46"/>
       <use x="159.033203" xlink:href="#DejaVuSans-48"/>
       <use x="222.65625" xlink:href="#DejaVuSans-54"/>
       <use x="286.279297" xlink:href="#DejaVuSans-46"/>
       <use x="318.066406" xlink:href="#DejaVuSans-49"/>
       <use x="381.689453" xlink:href="#DejaVuSans-56"/>
       <use x="445.3125" xlink:href="#DejaVuSans-32"/>
       <use x="477.099609" xlink:href="#DejaVuSans-48"/>
       <use x="540.722656" xlink:href="#DejaVuSans-56"/>
       <use x="604.345703" xlink:href="#DejaVuSans-58"/>
       <use x="638.037109" xlink:href="#DejaVuSans-49"/>
       <use x="701.660156" xlink:href="#DejaVuSans-57"/>
      </g>
     </g>
    </g>
    <g id="xtick_6">
     <g id="line2d_11">
      <path clip-path="url(#p526fd73473)" d="M 234.690082 583.92 
L 234.690082 84.96 
" style="fill:none;stroke:#b0b0b0;stroke-linecap:square;stroke-width:0.8;"/>
     </g>
     <g id="line2d_12">
      <g>
       <use style="stroke:#000000;stroke-width:0.8;" x="234.690082" xlink:href="#m99297055cc" y="583.92"/>
      </g>
     </g>
     <g id="text_6">
      <!-- 07.06.18 10:23 -->
      <defs>
       <path d="M 40.578125 39.3125 
Q 47.65625 37.796875 51.625 33 
Q 55.609375 28.21875 55.609375 21.1875 
Q 55.609375 10.40625 48.1875 4.484375 
Q 40.765625 -1.421875 27.09375 -1.421875 
Q 22.515625 -1.421875 17.65625 -0.515625 
Q 12.796875 0.390625 7.625 2.203125 
L 7.625 11.71875 
Q 11.71875 9.328125 16.59375 8.109375 
Q 21.484375 6.890625 26.8125 6.890625 
Q 36.078125 6.890625 40.9375 10.546875 
Q 45.796875 14.203125 45.796875 21.1875 
Q 45.796875 27.640625 41.28125 31.265625 
Q 36.765625 34.90625 28.71875 34.90625 
L 20.21875 34.90625 
L 20.21875 43.015625 
L 29.109375 43.015625 
Q 36.375 43.015625 40.234375 45.921875 
Q 44.09375 48.828125 44.09375 54.296875 
Q 44.09375 59.90625 40.109375 62.90625 
Q 36.140625 65.921875 28.71875 65.921875 
Q 24.65625 65.921875 20.015625 65.03125 
Q 15.375 64.15625 9.8125 62.3125 
L 9.8125 71.09375 
Q 15.4375 72.65625 20.34375 73.4375 
Q 25.25 74.21875 29.59375 74.21875 
Q 40.828125 74.21875 47.359375 69.109375 
Q 53.90625 64.015625 53.90625 55.328125 
Q 53.90625 49.265625 50.4375 45.09375 
Q 46.96875 40.921875 40.578125 39.3125 
z
" id="DejaVuSans-51"/>
      </defs>
      <g transform="translate(237.449457 667.448125)rotate(-90)scale(0.1 -0.1)">
       <use xlink:href="#DejaVuSans-48"/>
       <use x="63.623047" xlink:href="#DejaVuSans-55"/>
       <use x="127.246094" xlink:href="#DejaVuSans-46"/>
       <use x="159.033203" xlink:href="#DejaVuSans-48"/>
       <use x="222.65625" xlink:href="#DejaVuSans-54"/>
       <use x="286.279297" xlink:href="#DejaVuSans-46"/>
       <use x="318.066406" xlink:href="#DejaVuSans-49"/>
       <use x="381.689453" xlink:href="#DejaVuSans-56"/>
       <use x="445.3125" xlink:href="#DejaVuSans-32"/>
       <use x="477.099609" xlink:href="#DejaVuSans-49"/>
       <use x="540.722656" xlink:href="#DejaVuSans-48"/>
       <use x="604.345703" xlink:href="#DejaVuSans-58"/>
       <use x="638.037109" xlink:href="#DejaVuSans-50"/>
       <use x="701.660156" xlink:href="#DejaVuSans-51"/>
      </g>
     </g>
    </g>
    <g id="xtick_7">
     <g id="line2d_13">
      <path clip-path="url(#p526fd73473)" d="M 273.507473 583.92 
L 273.507473 84.96 
" style="fill:none;stroke:#b0b0b0;stroke-linecap:square;stroke-width:0.8;"/>
     </g>
     <g id="line2d_14">
      <g>
       <use style="stroke:#000000;stroke-width:0.8;" x="273.507473" xlink:href="#m99297055cc" y="583.92"/>
      </g>
     </g>
     <g id="text_7">
      <!-- 07.06.18 12:28 -->
      <g transform="translate(276.266848 667.448125)rotate(-90)scale(0.1 -0.1)">
       <use xlink:href="#DejaVuSans-48"/>
       <use x="63.623047" xlink:href="#DejaVuSans-55"/>
       <use x="127.246094" xlink:href="#DejaVuSans-46"/>
       <use x="159.033203" xlink:href="#DejaVuSans-48"/>
       <use x="222.65625" xlink:href="#DejaVuSans-54"/>
       <use x="286.279297" xlink:href="#DejaVuSans-46"/>
       <use x="318.066406" xlink:href="#DejaVuSans-49"/>
       <use x="381.689453" xlink:href="#DejaVuSans-56"/>
       <use x="445.3125" xlink:href="#DejaVuSans-32"/>
       <use x="477.099609" xlink:href="#DejaVuSans-49"/>
       <use x="540.722656" xlink:href="#DejaVuSans-50"/>
       <use x="604.345703" xlink:href="#DejaVuSans-58"/>
       <use x="638.037109" xlink:href="#DejaVuSans-50"/>
       <use x="701.660156" xlink:href="#DejaVuSans-56"/>
      </g>
     </g>
    </g>
    <g id="xtick_8">
     <g id="line2d_15">
      <path clip-path="url(#p526fd73473)" d="M 312.324864 583.92 
L 312.324864 84.96 
" style="fill:none;stroke:#b0b0b0;stroke-linecap:square;stroke-width:0.8;"/>
     </g>
     <g id="line2d_16">
      <g>
       <use style="stroke:#000000;stroke-width:0.8;" x="312.324864" xlink:href="#m99297055cc" y="583.92"/>
      </g>
     </g>
     <g id="text_8">
      <!-- 07.06.18 14:33 -->
      <g transform="translate(315.084239 667.448125)rotate(-90)scale(0.1 -0.1)">
       <use xlink:href="#DejaVuSans-48"/>
       <use x="63.623047" xlink:href="#DejaVuSans-55"/>
       <use x="127.246094" xlink:href="#DejaVuSans-46"/>
       <use x="159.033203" xlink:href="#DejaVuSans-48"/>
       <use x="222.65625" xlink:href="#DejaVuSans-54"/>
       <use x="286.279297" xlink:href="#DejaVuSans-46"/>
       <use x="318.066406" xlink:href="#DejaVuSans-49"/>
       <use x="381.689453" xlink:href="#DejaVuSans-56"/>
       <use x="445.3125" xlink:href="#DejaVuSans-32"/>
       <use x="477.099609" xlink:href="#DejaVuSans-49"/>
       <use x="540.722656" xlink:href="#DejaVuSans-52"/>
       <use x="604.345703" xlink:href="#DejaVuSans-58"/>
       <use x="638.037109" xlink:href="#DejaVuSans-51"/>
       <use x="701.660156" xlink:href="#DejaVuSans-51"/>
      </g>
     </g>
    </g>
    <g id="xtick_9">
     <g id="line2d_17">
      <path clip-path="url(#p526fd73473)" d="M 351.142255 583.92 
L 351.142255 84.96 
" style="fill:none;stroke:#b0b0b0;stroke-linecap:square;stroke-width:0.8;"/>
     </g>
     <g id="line2d_18">
      <g>
       <use style="stroke:#000000;stroke-width:0.8;" x="351.142255" xlink:href="#m99297055cc" y="583.92"/>
      </g>
     </g>
     <g id="text_9">
      <!-- 07.06.18 16:38 -->
      <g transform="translate(353.90163 667.448125)rotate(-90)scale(0.1 -0.1)">
       <use xlink:href="#DejaVuSans-48"/>
       <use x="63.623047" xlink:href="#DejaVuSans-55"/>
       <use x="127.246094" xlink:href="#DejaVuSans-46"/>
       <use x="159.033203" xlink:href="#DejaVuSans-48"/>
       <use x="222.65625" xlink:href="#DejaVuSans-54"/>
       <use x="286.279297" xlink:href="#DejaVuSans-46"/>
       <use x="318.066406" xlink:href="#DejaVuSans-49"/>
       <use x="381.689453" xlink:href="#DejaVuSans-56"/>
       <use x="445.3125" xlink:href="#DejaVuSans-32"/>
       <use x="477.099609" xlink:href="#DejaVuSans-49"/>
       <use x="540.722656" xlink:href="#DejaVuSans-54"/>
       <use x="604.345703" xlink:href="#DejaVuSans-58"/>
       <use x="638.037109" xlink:href="#DejaVuSans-51"/>
       <use x="701.660156" xlink:href="#DejaVuSans-56"/>
      </g>
     </g>
    </g>
    <g id="xtick_10">
     <g id="line2d_19">
      <path clip-path="url(#p526fd73473)" d="M 389.959647 583.92 
L 389.959647 84.96 
" style="fill:none;stroke:#b0b0b0;stroke-linecap:square;stroke-width:0.8;"/>
     </g>
     <g id="line2d_20">
      <g>
       <use style="stroke:#000000;stroke-width:0.8;" x="389.959647" xlink:href="#m99297055cc" y="583.92"/>
      </g>
     </g>
     <g id="text_10">
      <!-- 07.06.18 18:43 -->
      <g transform="translate(392.719022 667.448125)rotate(-90)scale(0.1 -0.1)">
       <use xlink:href="#DejaVuSans-48"/>
       <use x="63.623047" xlink:href="#DejaVuSans-55"/>
       <use x="127.246094" xlink:href="#DejaVuSans-46"/>
       <use x="159.033203" xlink:href="#DejaVuSans-48"/>
       <use x="222.65625" xlink:href="#DejaVuSans-54"/>
       <use x="286.279297" xlink:href="#DejaVuSans-46"/>
       <use x="318.066406" xlink:href="#DejaVuSans-49"/>
       <use x="381.689453" xlink:href="#DejaVuSans-56"/>
       <use x="445.3125" xlink:href="#DejaVuSans-32"/>
       <use x="477.099609" xlink:href="#DejaVuSans-49"/>
       <use x="540.722656" xlink:href="#DejaVuSans-56"/>
       <use x="604.345703" xlink:href="#DejaVuSans-58"/>
       <use x="638.037109" xlink:href="#DejaVuSans-52"/>
       <use x="701.660156" xlink:href="#DejaVuSans-51"/>
      </g>
     </g>
    </g>
    <g id="xtick_11">
     <g id="line2d_21">
      <path clip-path="url(#p526fd73473)" d="M 428.777038 583.92 
L 428.777038 84.96 
" style="fill:none;stroke:#b0b0b0;stroke-linecap:square;stroke-width:0.8;"/>
     </g>
     <g id="line2d_22">
      <g>
       <use style="stroke:#000000;stroke-width:0.8;" x="428.777038" xlink:href="#m99297055cc" y="583.92"/>
      </g>
     </g>
     <g id="text_11">
      <!-- 07.06.18 20:47 -->
      <g transform="translate(431.536413 667.448125)rotate(-90)scale(0.1 -0.1)">
       <use xlink:href="#DejaVuSans-48"/>
       <use x="63.623047" xlink:href="#DejaVuSans-55"/>
       <use x="127.246094" xlink:href="#DejaVuSans-46"/>
       <use x="159.033203" xlink:href="#DejaVuSans-48"/>
       <use x="222.65625" xlink:href="#DejaVuSans-54"/>
       <use x="286.279297" xlink:href="#DejaVuSans-46"/>
       <use x="318.066406" xlink:href="#DejaVuSans-49"/>
       <use x="381.689453" xlink:href="#DejaVuSans-56"/>
       <use x="445.3125" xlink:href="#DejaVuSans-32"/>
       <use x="477.099609" xlink:href="#DejaVuSans-50"/>
       <use x="540.722656" xlink:href="#DejaVuSans-48"/>
       <use x="604.345703" xlink:href="#DejaVuSans-58"/>
       <use x="638.037109" xlink:href="#DejaVuSans-52"/>
       <use x="701.660156" xlink:href="#DejaVuSans-55"/>
      </g>
     </g>
    </g>
    <g id="xtick_12">
     <g id="line2d_23">
      <path clip-path="url(#p526fd73473)" d="M 467.594429 583.92 
L 467.594429 84.96 
" style="fill:none;stroke:#b0b0b0;stroke-linecap:square;stroke-width:0.8;"/>
     </g>
     <g id="line2d_24">
      <g>
       <use style="stroke:#000000;stroke-width:0.8;" x="467.594429" xlink:href="#m99297055cc" y="583.92"/>
      </g>
     </g>
     <g id="text_12">
      <!-- 07.06.18 22:52 -->
      <defs>
       <path d="M 10.796875 72.90625 
L 49.515625 72.90625 
L 49.515625 64.59375 
L 19.828125 64.59375 
L 19.828125 46.734375 
Q 21.96875 47.46875 24.109375 47.828125 
Q 26.265625 48.1875 28.421875 48.1875 
Q 40.625 48.1875 47.75 41.5 
Q 54.890625 34.8125 54.890625 23.390625 
Q 54.890625 11.625 47.5625 5.09375 
Q 40.234375 -1.421875 26.90625 -1.421875 
Q 22.3125 -1.421875 17.546875 -0.640625 
Q 12.796875 0.140625 7.71875 1.703125 
L 7.71875 11.625 
Q 12.109375 9.234375 16.796875 8.0625 
Q 21.484375 6.890625 26.703125 6.890625 
Q 35.15625 6.890625 40.078125 11.328125 
Q 45.015625 15.765625 45.015625 23.390625 
Q 45.015625 31 40.078125 35.4375 
Q 35.15625 39.890625 26.703125 39.890625 
Q 22.75 39.890625 18.8125 39.015625 
Q 14.890625 38.140625 10.796875 36.28125 
z
" id="DejaVuSans-53"/>
      </defs>
      <g transform="translate(470.353804 667.448125)rotate(-90)scale(0.1 -0.1)">
       <use xlink:href="#DejaVuSans-48"/>
       <use x="63.623047" xlink:href="#DejaVuSans-55"/>
       <use x="127.246094" xlink:href="#DejaVuSans-46"/>
       <use x="159.033203" xlink:href="#DejaVuSans-48"/>
       <use x="222.65625" xlink:href="#DejaVuSans-54"/>
       <use x="286.279297" xlink:href="#DejaVuSans-46"/>
       <use x="318.066406" xlink:href="#DejaVuSans-49"/>
       <use x="381.689453" xlink:href="#DejaVuSans-56"/>
       <use x="445.3125" xlink:href="#DejaVuSans-32"/>
       <use x="477.099609" xlink:href="#DejaVuSans-50"/>
       <use x="540.722656" xlink:href="#DejaVuSans-50"/>
       <use x="604.345703" xlink:href="#DejaVuSans-58"/>
       <use x="638.037109" xlink:href="#DejaVuSans-53"/>
       <use x="701.660156" xlink:href="#DejaVuSans-50"/>
      </g>
     </g>
    </g>
    <g id="xtick_13">
     <g id="line2d_25">
      <path clip-path="url(#p526fd73473)" d="M 506.411821 583.92 
L 506.411821 84.96 
" style="fill:none;stroke:#b0b0b0;stroke-linecap:square;stroke-width:0.8;"/>
     </g>
     <g id="line2d_26">
      <g>
       <use style="stroke:#000000;stroke-width:0.8;" x="506.411821" xlink:href="#m99297055cc" y="583.92"/>
      </g>
     </g>
     <g id="text_13">
      <!-- 08.06.18 00:57 -->
      <g transform="translate(509.171196 667.448125)rotate(-90)scale(0.1 -0.1)">
       <use xlink:href="#DejaVuSans-48"/>
       <use x="63.623047" xlink:href="#DejaVuSans-56"/>
       <use x="127.246094" xlink:href="#DejaVuSans-46"/>
       <use x="159.033203" xlink:href="#DejaVuSans-48"/>
       <use x="222.65625" xlink:href="#DejaVuSans-54"/>
       <use x="286.279297" xlink:href="#DejaVuSans-46"/>
       <use x="318.066406" xlink:href="#DejaVuSans-49"/>
       <use x="381.689453" xlink:href="#DejaVuSans-56"/>
       <use x="445.3125" xlink:href="#DejaVuSans-32"/>
       <use x="477.099609" xlink:href="#DejaVuSans-48"/>
       <use x="540.722656" xlink:href="#DejaVuSans-48"/>
       <use x="604.345703" xlink:href="#DejaVuSans-58"/>
       <use x="638.037109" xlink:href="#DejaVuSans-53"/>
       <use x="701.660156" xlink:href="#DejaVuSans-55"/>
      </g>
     </g>
    </g>
    <g id="xtick_14">
     <g id="line2d_27">
      <path clip-path="url(#p526fd73473)" d="M 545.229212 583.92 
L 545.229212 84.96 
" style="fill:none;stroke:#b0b0b0;stroke-linecap:square;stroke-width:0.8;"/>
     </g>
     <g id="line2d_28">
      <g>
       <use style="stroke:#000000;stroke-width:0.8;" x="545.229212" xlink:href="#m99297055cc" y="583.92"/>
      </g>
     </g>
     <g id="text_14">
      <!-- 08.06.18 03:02 -->
      <g transform="translate(547.988587 667.448125)rotate(-90)scale(0.1 -0.1)">
       <use xlink:href="#DejaVuSans-48"/>
       <use x="63.623047" xlink:href="#DejaVuSans-56"/>
       <use x="127.246094" xlink:href="#DejaVuSans-46"/>
       <use x="159.033203" xlink:href="#DejaVuSans-48"/>
       <use x="222.65625" xlink:href="#DejaVuSans-54"/>
       <use x="286.279297" xlink:href="#DejaVuSans-46"/>
       <use x="318.066406" xlink:href="#DejaVuSans-49"/>
       <use x="381.689453" xlink:href="#DejaVuSans-56"/>
       <use x="445.3125" xlink:href="#DejaVuSans-32"/>
       <use x="477.099609" xlink:href="#DejaVuSans-48"/>
       <use x="540.722656" xlink:href="#DejaVuSans-51"/>
       <use x="604.345703" xlink:href="#DejaVuSans-58"/>
       <use x="638.037109" xlink:href="#DejaVuSans-48"/>
       <use x="701.660156" xlink:href="#DejaVuSans-50"/>
      </g>
     </g>
    </g>
    <g id="xtick_15">
     <g id="line2d_29">
      <path clip-path="url(#p526fd73473)" d="M 584.046603 583.92 
L 584.046603 84.96 
" style="fill:none;stroke:#b0b0b0;stroke-linecap:square;stroke-width:0.8;"/>
     </g>
     <g id="line2d_30">
      <g>
       <use style="stroke:#000000;stroke-width:0.8;" x="584.046603" xlink:href="#m99297055cc" y="583.92"/>
      </g>
     </g>
     <g id="text_15">
      <!-- 08.06.18 05:06 -->
      <g transform="translate(586.805978 667.448125)rotate(-90)scale(0.1 -0.1)">
       <use xlink:href="#DejaVuSans-48"/>
       <use x="63.623047" xlink:href="#DejaVuSans-56"/>
       <use x="127.246094" xlink:href="#DejaVuSans-46"/>
       <use x="159.033203" xlink:href="#DejaVuSans-48"/>
       <use x="222.65625" xlink:href="#DejaVuSans-54"/>
       <use x="286.279297" xlink:href="#DejaVuSans-46"/>
       <use x="318.066406" xlink:href="#DejaVuSans-49"/>
       <use x="381.689453" xlink:href="#DejaVuSans-56"/>
       <use x="445.3125" xlink:href="#DejaVuSans-32"/>
       <use x="477.099609" xlink:href="#DejaVuSans-48"/>
       <use x="540.722656" xlink:href="#DejaVuSans-53"/>
       <use x="604.345703" xlink:href="#DejaVuSans-58"/>
       <use x="638.037109" xlink:href="#DejaVuSans-48"/>
       <use x="701.660156" xlink:href="#DejaVuSans-54"/>
      </g>
     </g>
    </g>
    <g id="xtick_16">
     <g id="line2d_31">
      <path clip-path="url(#p526fd73473)" d="M 622.863995 583.92 
L 622.863995 84.96 
" style="fill:none;stroke:#b0b0b0;stroke-linecap:square;stroke-width:0.8;"/>
     </g>
     <g id="line2d_32">
      <g>
       <use style="stroke:#000000;stroke-width:0.8;" x="622.863995" xlink:href="#m99297055cc" y="583.92"/>
      </g>
     </g>
     <g id="text_16">
      <!-- 08.06.18 07:11 -->
      <g transform="translate(625.62337 667.448125)rotate(-90)scale(0.1 -0.1)">
       <use xlink:href="#DejaVuSans-48"/>
       <use x="63.623047" xlink:href="#DejaVuSans-56"/>
       <use x="127.246094" xlink:href="#DejaVuSans-46"/>
       <use x="159.033203" xlink:href="#DejaVuSans-48"/>
       <use x="222.65625" xlink:href="#DejaVuSans-54"/>
       <use x="286.279297" xlink:href="#DejaVuSans-46"/>
       <use x="318.066406" xlink:href="#DejaVuSans-49"/>
       <use x="381.689453" xlink:href="#DejaVuSans-56"/>
       <use x="445.3125" xlink:href="#DejaVuSans-32"/>
       <use x="477.099609" xlink:href="#DejaVuSans-48"/>
       <use x="540.722656" xlink:href="#DejaVuSans-55"/>
       <use x="604.345703" xlink:href="#DejaVuSans-58"/>
       <use x="638.037109" xlink:href="#DejaVuSans-49"/>
       <use x="701.660156" xlink:href="#DejaVuSans-49"/>
      </g>
     </g>
    </g>
    <g id="xtick_17">
     <g id="line2d_33">
      <path clip-path="url(#p526fd73473)" d="M 661.681386 583.92 
L 661.681386 84.96 
" style="fill:none;stroke:#b0b0b0;stroke-linecap:square;stroke-width:0.8;"/>
     </g>
     <g id="line2d_34">
      <g>
       <use style="stroke:#000000;stroke-width:0.8;" x="661.681386" xlink:href="#m99297055cc" y="583.92"/>
      </g>
     </g>
     <g id="text_17">
      <!-- 08.06.18 09:16 -->
      <g transform="translate(664.440761 667.448125)rotate(-90)scale(0.1 -0.1)">
       <use xlink:href="#DejaVuSans-48"/>
       <use x="63.623047" xlink:href="#DejaVuSans-56"/>
       <use x="127.246094" xlink:href="#DejaVuSans-46"/>
       <use x="159.033203" xlink:href="#DejaVuSans-48"/>
       <use x="222.65625" xlink:href="#DejaVuSans-54"/>
       <use x="286.279297" xlink:href="#DejaVuSans-46"/>
       <use x="318.066406" xlink:href="#DejaVuSans-49"/>
       <use x="381.689453" xlink:href="#DejaVuSans-56"/>
       <use x="445.3125" xlink:href="#DejaVuSans-32"/>
       <use x="477.099609" xlink:href="#DejaVuSans-48"/>
       <use x="540.722656" xlink:href="#DejaVuSans-57"/>
       <use x="604.345703" xlink:href="#DejaVuSans-58"/>
       <use x="638.037109" xlink:href="#DejaVuSans-49"/>
       <use x="701.660156" xlink:href="#DejaVuSans-54"/>
      </g>
     </g>
    </g>
    <g id="xtick_18">
     <g id="line2d_35">
      <path clip-path="url(#p526fd73473)" d="M 700.498777 583.92 
L 700.498777 84.96 
" style="fill:none;stroke:#b0b0b0;stroke-linecap:square;stroke-width:0.8;"/>
     </g>
     <g id="line2d_36">
      <g>
       <use style="stroke:#000000;stroke-width:0.8;" x="700.498777" xlink:href="#m99297055cc" y="583.92"/>
      </g>
     </g>
     <g id="text_18">
      <!-- 08.06.18 11:21 -->
      <g transform="translate(703.258152 667.448125)rotate(-90)scale(0.1 -0.1)">
       <use xlink:href="#DejaVuSans-48"/>
       <use x="63.623047" xlink:href="#DejaVuSans-56"/>
       <use x="127.246094" xlink:href="#DejaVuSans-46"/>
       <use x="159.033203" xlink:href="#DejaVuSans-48"/>
       <use x="222.65625" xlink:href="#DejaVuSans-54"/>
       <use x="286.279297" xlink:href="#DejaVuSans-46"/>
       <use x="318.066406" xlink:href="#DejaVuSans-49"/>
       <use x="381.689453" xlink:href="#DejaVuSans-56"/>
       <use x="445.3125" xlink:href="#DejaVuSans-32"/>
       <use x="477.099609" xlink:href="#DejaVuSans-49"/>
       <use x="540.722656" xlink:href="#DejaVuSans-49"/>
       <use x="604.345703" xlink:href="#DejaVuSans-58"/>
       <use x="638.037109" xlink:href="#DejaVuSans-50"/>
       <use x="701.660156" xlink:href="#DejaVuSans-49"/>
      </g>
     </g>
    </g>
    <g id="xtick_19">
     <g id="line2d_37">
      <path clip-path="url(#p526fd73473)" d="M 739.316168 583.92 
L 739.316168 84.96 
" style="fill:none;stroke:#b0b0b0;stroke-linecap:square;stroke-width:0.8;"/>
     </g>
     <g id="line2d_38">
      <g>
       <use style="stroke:#000000;stroke-width:0.8;" x="739.316168" xlink:href="#m99297055cc" y="583.92"/>
      </g>
     </g>
     <g id="text_19">
      <!-- 08.06.18 13:26 -->
      <g transform="translate(742.075543 667.448125)rotate(-90)scale(0.1 -0.1)">
       <use xlink:href="#DejaVuSans-48"/>
       <use x="63.623047" xlink:href="#DejaVuSans-56"/>
       <use x="127.246094" xlink:href="#DejaVuSans-46"/>
       <use x="159.033203" xlink:href="#DejaVuSans-48"/>
       <use x="222.65625" xlink:href="#DejaVuSans-54"/>
       <use x="286.279297" xlink:href="#DejaVuSans-46"/>
       <use x="318.066406" xlink:href="#DejaVuSans-49"/>
       <use x="381.689453" xlink:href="#DejaVuSans-56"/>
       <use x="445.3125" xlink:href="#DejaVuSans-32"/>
       <use x="477.099609" xlink:href="#DejaVuSans-49"/>
       <use x="540.722656" xlink:href="#DejaVuSans-51"/>
       <use x="604.345703" xlink:href="#DejaVuSans-58"/>
       <use x="638.037109" xlink:href="#DejaVuSans-50"/>
       <use x="701.660156" xlink:href="#DejaVuSans-54"/>
      </g>
     </g>
    </g>
    <g id="xtick_20">
     <g id="line2d_39">
      <path clip-path="url(#p526fd73473)" d="M 778.13356 583.92 
L 778.13356 84.96 
" style="fill:none;stroke:#b0b0b0;stroke-linecap:square;stroke-width:0.8;"/>
     </g>
     <g id="line2d_40">
      <g>
       <use style="stroke:#000000;stroke-width:0.8;" x="778.13356" xlink:href="#m99297055cc" y="583.92"/>
      </g>
     </g>
     <g id="text_20">
      <!-- 08.06.18 15:30 -->
      <g transform="translate(780.892935 667.448125)rotate(-90)scale(0.1 -0.1)">
       <use xlink:href="#DejaVuSans-48"/>
       <use x="63.623047" xlink:href="#DejaVuSans-56"/>
       <use x="127.246094" xlink:href="#DejaVuSans-46"/>
       <use x="159.033203" xlink:href="#DejaVuSans-48"/>
       <use x="222.65625" xlink:href="#DejaVuSans-54"/>
       <use x="286.279297" xlink:href="#DejaVuSans-46"/>
       <use x="318.066406" xlink:href="#DejaVuSans-49"/>
       <use x="381.689453" xlink:href="#DejaVuSans-56"/>
       <use x="445.3125" xlink:href="#DejaVuSans-32"/>
       <use x="477.099609" xlink:href="#DejaVuSans-49"/>
       <use x="540.722656" xlink:href="#DejaVuSans-53"/>
       <use x="604.345703" xlink:href="#DejaVuSans-58"/>
       <use x="638.037109" xlink:href="#DejaVuSans-51"/>
       <use x="701.660156" xlink:href="#DejaVuSans-48"/>
      </g>
     </g>
    </g>
    <g id="xtick_21">
     <g id="line2d_41">
      <path clip-path="url(#p526fd73473)" d="M 816.950951 583.92 
L 816.950951 84.96 
" style="fill:none;stroke:#b0b0b0;stroke-linecap:square;stroke-width:0.8;"/>
     </g>
     <g id="line2d_42">
      <g>
       <use style="stroke:#000000;stroke-width:0.8;" x="816.950951" xlink:href="#m99297055cc" y="583.92"/>
      </g>
     </g>
     <g id="text_21">
      <!-- 08.06.18 17:35 -->
      <g transform="translate(819.710326 667.448125)rotate(-90)scale(0.1 -0.1)">
       <use xlink:href="#DejaVuSans-48"/>
       <use x="63.623047" xlink:href="#DejaVuSans-56"/>
       <use x="127.246094" xlink:href="#DejaVuSans-46"/>
       <use x="159.033203" xlink:href="#DejaVuSans-48"/>
       <use x="222.65625" xlink:href="#DejaVuSans-54"/>
       <use x="286.279297" xlink:href="#DejaVuSans-46"/>
       <use x="318.066406" xlink:href="#DejaVuSans-49"/>
       <use x="381.689453" xlink:href="#DejaVuSans-56"/>
       <use x="445.3125" xlink:href="#DejaVuSans-32"/>
       <use x="477.099609" xlink:href="#DejaVuSans-49"/>
       <use x="540.722656" xlink:href="#DejaVuSans-55"/>
       <use x="604.345703" xlink:href="#DejaVuSans-58"/>
       <use x="638.037109" xlink:href="#DejaVuSans-51"/>
       <use x="701.660156" xlink:href="#DejaVuSans-53"/>
      </g>
     </g>
    </g>
    <g id="xtick_22">
     <g id="line2d_43">
      <path clip-path="url(#p526fd73473)" d="M 855.768342 583.92 
L 855.768342 84.96 
" style="fill:none;stroke:#b0b0b0;stroke-linecap:square;stroke-width:0.8;"/>
     </g>
     <g id="line2d_44">
      <g>
       <use style="stroke:#000000;stroke-width:0.8;" x="855.768342" xlink:href="#m99297055cc" y="583.92"/>
      </g>
     </g>
     <g id="text_22">
      <!-- 08.06.18 19:40 -->
      <g transform="translate(858.527717 667.448125)rotate(-90)scale(0.1 -0.1)">
       <use xlink:href="#DejaVuSans-48"/>
       <use x="63.623047" xlink:href="#DejaVuSans-56"/>
       <use x="127.246094" xlink:href="#DejaVuSans-46"/>
       <use x="159.033203" xlink:href="#DejaVuSans-48"/>
       <use x="222.65625" xlink:href="#DejaVuSans-54"/>
       <use x="286.279297" xlink:href="#DejaVuSans-46"/>
       <use x="318.066406" xlink:href="#DejaVuSans-49"/>
       <use x="381.689453" xlink:href="#DejaVuSans-56"/>
       <use x="445.3125" xlink:href="#DejaVuSans-32"/>
       <use x="477.099609" xlink:href="#DejaVuSans-49"/>
       <use x="540.722656" xlink:href="#DejaVuSans-57"/>
       <use x="604.345703" xlink:href="#DejaVuSans-58"/>
       <use x="638.037109" xlink:href="#DejaVuSans-52"/>
       <use x="701.660156" xlink:href="#DejaVuSans-48"/>
      </g>
     </g>
    </g>
    <g id="xtick_23">
     <g id="line2d_45">
      <path clip-path="url(#p526fd73473)" d="M 894.585734 583.92 
L 894.585734 84.96 
" style="fill:none;stroke:#b0b0b0;stroke-linecap:square;stroke-width:0.8;"/>
     </g>
     <g id="line2d_46">
      <g>
       <use style="stroke:#000000;stroke-width:0.8;" x="894.585734" xlink:href="#m99297055cc" y="583.92"/>
      </g>
     </g>
     <g id="text_23">
      <!-- 08.06.18 21:45 -->
      <g transform="translate(897.345109 667.448125)rotate(-90)scale(0.1 -0.1)">
       <use xlink:href="#DejaVuSans-48"/>
       <use x="63.623047" xlink:href="#DejaVuSans-56"/>
       <use x="127.246094" xlink:href="#DejaVuSans-46"/>
       <use x="159.033203" xlink:href="#DejaVuSans-48"/>
       <use x="222.65625" xlink:href="#DejaVuSans-54"/>
       <use x="286.279297" xlink:href="#DejaVuSans-46"/>
       <use x="318.066406" xlink:href="#DejaVuSans-49"/>
       <use x="381.689453" xlink:href="#DejaVuSans-56"/>
       <use x="445.3125" xlink:href="#DejaVuSans-32"/>
       <use x="477.099609" xlink:href="#DejaVuSans-50"/>
       <use x="540.722656" xlink:href="#DejaVuSans-49"/>
       <use x="604.345703" xlink:href="#DejaVuSans-58"/>
       <use x="638.037109" xlink:href="#DejaVuSans-52"/>
       <use x="701.660156" xlink:href="#DejaVuSans-53"/>
      </g>
     </g>
    </g>
    <g id="xtick_24">
     <g id="line2d_47">
      <path clip-path="url(#p526fd73473)" d="M 933.403125 583.92 
L 933.403125 84.96 
" style="fill:none;stroke:#b0b0b0;stroke-linecap:square;stroke-width:0.8;"/>
     </g>
     <g id="line2d_48">
      <g>
       <use style="stroke:#000000;stroke-width:0.8;" x="933.403125" xlink:href="#m99297055cc" y="583.92"/>
      </g>
     </g>
     <g id="text_24">
      <!-- 08.06.18 23:50 -->
      <g transform="translate(936.1625 667.448125)rotate(-90)scale(0.1 -0.1)">
       <use xlink:href="#DejaVuSans-48"/>
       <use x="63.623047" xlink:href="#DejaVuSans-56"/>
       <use x="127.246094" xlink:href="#DejaVuSans-46"/>
       <use x="159.033203" xlink:href="#DejaVuSans-48"/>
       <use x="222.65625" xlink:href="#DejaVuSans-54"/>
       <use x="286.279297" xlink:href="#DejaVuSans-46"/>
       <use x="318.066406" xlink:href="#DejaVuSans-49"/>
       <use x="381.689453" xlink:href="#DejaVuSans-56"/>
       <use x="445.3125" xlink:href="#DejaVuSans-32"/>
       <use x="477.099609" xlink:href="#DejaVuSans-50"/>
       <use x="540.722656" xlink:href="#DejaVuSans-51"/>
       <use x="604.345703" xlink:href="#DejaVuSans-58"/>
       <use x="638.037109" xlink:href="#DejaVuSans-53"/>
       <use x="701.660156" xlink:href="#DejaVuSans-48"/>
      </g>
     </g>
    </g>
   </g>
   <g id="matplotlib.axis_2">
    <g id="ytick_1">
     <g id="line2d_49">
      <defs>
       <path d="M 0 0 
L -3.5 0 
" id="mdf779b4f2e" style="stroke:#000000;stroke-width:0.8;"/>
      </defs>
      <g>
       <use style="stroke:#000000;stroke-width:0.8;" x="40.603125" xlink:href="#mdf779b4f2e" y="529.74"/>
      </g>
     </g>
     <g id="text_25">
      <!-- 15 -->
      <g transform="translate(20.878125 533.539219)scale(0.1 -0.1)">
       <use xlink:href="#DejaVuSans-49"/>
       <use x="63.623047" xlink:href="#DejaVuSans-53"/>
      </g>
     </g>
    </g>
    <g id="ytick_2">
     <g id="line2d_50">
      <g>
       <use style="stroke:#000000;stroke-width:0.8;" x="40.603125" xlink:href="#mdf779b4f2e" y="466.74"/>
      </g>
     </g>
     <g id="text_26">
      <!-- 16 -->
      <g transform="translate(20.878125 470.539219)scale(0.1 -0.1)">
       <use xlink:href="#DejaVuSans-49"/>
       <use x="63.623047" xlink:href="#DejaVuSans-54"/>
      </g>
     </g>
    </g>
    <g id="ytick_3">
     <g id="line2d_51">
      <g>
       <use style="stroke:#000000;stroke-width:0.8;" x="40.603125" xlink:href="#mdf779b4f2e" y="403.74"/>
      </g>
     </g>
     <g id="text_27">
      <!-- 17 -->
      <g transform="translate(20.878125 407.539219)scale(0.1 -0.1)">
       <use xlink:href="#DejaVuSans-49"/>
       <use x="63.623047" xlink:href="#DejaVuSans-55"/>
      </g>
     </g>
    </g>
    <g id="ytick_4">
     <g id="line2d_52">
      <g>
       <use style="stroke:#000000;stroke-width:0.8;" x="40.603125" xlink:href="#mdf779b4f2e" y="340.74"/>
      </g>
     </g>
     <g id="text_28">
      <!-- 18 -->
      <g transform="translate(20.878125 344.539219)scale(0.1 -0.1)">
       <use xlink:href="#DejaVuSans-49"/>
       <use x="63.623047" xlink:href="#DejaVuSans-56"/>
      </g>
     </g>
    </g>
    <g id="ytick_5">
     <g id="line2d_53">
      <g>
       <use style="stroke:#000000;stroke-width:0.8;" x="40.603125" xlink:href="#mdf779b4f2e" y="277.74"/>
      </g>
     </g>
     <g id="text_29">
      <!-- 19 -->
      <g transform="translate(20.878125 281.539219)scale(0.1 -0.1)">
       <use xlink:href="#DejaVuSans-49"/>
       <use x="63.623047" xlink:href="#DejaVuSans-57"/>
      </g>
     </g>
    </g>
    <g id="ytick_6">
     <g id="line2d_54">
      <g>
       <use style="stroke:#000000;stroke-width:0.8;" x="40.603125" xlink:href="#mdf779b4f2e" y="214.74"/>
      </g>
     </g>
     <g id="text_30">
      <!-- 20 -->
      <g transform="translate(20.878125 218.539219)scale(0.1 -0.1)">
       <use xlink:href="#DejaVuSans-50"/>
       <use x="63.623047" xlink:href="#DejaVuSans-48"/>
      </g>
     </g>
    </g>
    <g id="ytick_7">
     <g id="line2d_55">
      <g>
       <use style="stroke:#000000;stroke-width:0.8;" x="40.603125" xlink:href="#mdf779b4f2e" y="151.74"/>
      </g>
     </g>
     <g id="text_31">
      <!-- 21 -->
      <g transform="translate(20.878125 155.539219)scale(0.1 -0.1)">
       <use xlink:href="#DejaVuSans-50"/>
       <use x="63.623047" xlink:href="#DejaVuSans-49"/>
      </g>
     </g>
    </g>
    <g id="ytick_8">
     <g id="line2d_56">
      <g>
       <use style="stroke:#000000;stroke-width:0.8;" x="40.603125" xlink:href="#mdf779b4f2e" y="88.74"/>
      </g>
     </g>
     <g id="text_32">
      <!-- 22 -->
      <g transform="translate(20.878125 92.539219)scale(0.1 -0.1)">
       <use xlink:href="#DejaVuSans-50"/>
       <use x="63.623047" xlink:href="#DejaVuSans-50"/>
      </g>
     </g>
    </g>
    <g id="text_33">
     <!-- Temperatur 1 [°C] -->
     <defs>
      <path d="M -0.296875 72.90625 
L 61.375 72.90625 
L 61.375 64.59375 
L 35.5 64.59375 
L 35.5 0 
L 25.59375 0 
L 25.59375 64.59375 
L -0.296875 64.59375 
z
" id="DejaVuSans-84"/>
      <path d="M 56.203125 29.59375 
L 56.203125 25.203125 
L 14.890625 25.203125 
Q 15.484375 15.921875 20.484375 11.0625 
Q 25.484375 6.203125 34.421875 6.203125 
Q 39.59375 6.203125 44.453125 7.46875 
Q 49.3125 8.734375 54.109375 11.28125 
L 54.109375 2.78125 
Q 49.265625 0.734375 44.1875 -0.34375 
Q 39.109375 -1.421875 33.890625 -1.421875 
Q 20.796875 -1.421875 13.15625 6.1875 
Q 5.515625 13.8125 5.515625 26.8125 
Q 5.515625 40.234375 12.765625 48.109375 
Q 20.015625 56 32.328125 56 
Q 43.359375 56 49.78125 48.890625 
Q 56.203125 41.796875 56.203125 29.59375 
z
M 47.21875 32.234375 
Q 47.125 39.59375 43.09375 43.984375 
Q 39.0625 48.390625 32.421875 48.390625 
Q 24.90625 48.390625 20.390625 44.140625 
Q 15.875 39.890625 15.1875 32.171875 
z
" id="DejaVuSans-101"/>
      <path d="M 52 44.1875 
Q 55.375 50.25 60.0625 53.125 
Q 64.75 56 71.09375 56 
Q 79.640625 56 84.28125 50.015625 
Q 88.921875 44.046875 88.921875 33.015625 
L 88.921875 0 
L 79.890625 0 
L 79.890625 32.71875 
Q 79.890625 40.578125 77.09375 44.375 
Q 74.3125 48.1875 68.609375 48.1875 
Q 61.625 48.1875 57.5625 43.546875 
Q 53.515625 38.921875 53.515625 30.90625 
L 53.515625 0 
L 44.484375 0 
L 44.484375 32.71875 
Q 44.484375 40.625 41.703125 44.40625 
Q 38.921875 48.1875 33.109375 48.1875 
Q 26.21875 48.1875 22.15625 43.53125 
Q 18.109375 38.875 18.109375 30.90625 
L 18.109375 0 
L 9.078125 0 
L 9.078125 54.6875 
L 18.109375 54.6875 
L 18.109375 46.1875 
Q 21.1875 51.21875 25.484375 53.609375 
Q 29.78125 56 35.6875 56 
Q 41.65625 56 45.828125 52.96875 
Q 50 49.953125 52 44.1875 
z
" id="DejaVuSans-109"/>
      <path d="M 18.109375 8.203125 
L 18.109375 -20.796875 
L 9.078125 -20.796875 
L 9.078125 54.6875 
L 18.109375 54.6875 
L 18.109375 46.390625 
Q 20.953125 51.265625 25.265625 53.625 
Q 29.59375 56 35.59375 56 
Q 45.5625 56 51.78125 48.09375 
Q 58.015625 40.1875 58.015625 27.296875 
Q 58.015625 14.40625 51.78125 6.484375 
Q 45.5625 -1.421875 35.59375 -1.421875 
Q 29.59375 -1.421875 25.265625 0.953125 
Q 20.953125 3.328125 18.109375 8.203125 
z
M 48.6875 27.296875 
Q 48.6875 37.203125 44.609375 42.84375 
Q 40.53125 48.484375 33.40625 48.484375 
Q 26.265625 48.484375 22.1875 42.84375 
Q 18.109375 37.203125 18.109375 27.296875 
Q 18.109375 17.390625 22.1875 11.75 
Q 26.265625 6.109375 33.40625 6.109375 
Q 40.53125 6.109375 44.609375 11.75 
Q 48.6875 17.390625 48.6875 27.296875 
z
" id="DejaVuSans-112"/>
      <path d="M 41.109375 46.296875 
Q 39.59375 47.171875 37.8125 47.578125 
Q 36.03125 48 33.890625 48 
Q 26.265625 48 22.1875 43.046875 
Q 18.109375 38.09375 18.109375 28.8125 
L 18.109375 0 
L 9.078125 0 
L 9.078125 54.6875 
L 18.109375 54.6875 
L 18.109375 46.1875 
Q 20.953125 51.171875 25.484375 53.578125 
Q 30.03125 56 36.53125 56 
Q 37.453125 56 38.578125 55.875 
Q 39.703125 55.765625 41.0625 55.515625 
z
" id="DejaVuSans-114"/>
      <path d="M 34.28125 27.484375 
Q 23.390625 27.484375 19.1875 25 
Q 14.984375 22.515625 14.984375 16.5 
Q 14.984375 11.71875 18.140625 8.90625 
Q 21.296875 6.109375 26.703125 6.109375 
Q 34.1875 6.109375 38.703125 11.40625 
Q 43.21875 16.703125 43.21875 25.484375 
L 43.21875 27.484375 
z
M 52.203125 31.203125 
L 52.203125 0 
L 43.21875 0 
L 43.21875 8.296875 
Q 40.140625 3.328125 35.546875 0.953125 
Q 30.953125 -1.421875 24.3125 -1.421875 
Q 15.921875 -1.421875 10.953125 3.296875 
Q 6 8.015625 6 15.921875 
Q 6 25.140625 12.171875 29.828125 
Q 18.359375 34.515625 30.609375 34.515625 
L 43.21875 34.515625 
L 43.21875 35.40625 
Q 43.21875 41.609375 39.140625 45 
Q 35.0625 48.390625 27.6875 48.390625 
Q 23 48.390625 18.546875 47.265625 
Q 14.109375 46.140625 10.015625 43.890625 
L 10.015625 52.203125 
Q 14.9375 54.109375 19.578125 55.046875 
Q 24.21875 56 28.609375 56 
Q 40.484375 56 46.34375 49.84375 
Q 52.203125 43.703125 52.203125 31.203125 
z
" id="DejaVuSans-97"/>
      <path d="M 18.3125 70.21875 
L 18.3125 54.6875 
L 36.8125 54.6875 
L 36.8125 47.703125 
L 18.3125 47.703125 
L 18.3125 18.015625 
Q 18.3125 11.328125 20.140625 9.421875 
Q 21.96875 7.515625 27.59375 7.515625 
L 36.8125 7.515625 
L 36.8125 0 
L 27.59375 0 
Q 17.1875 0 13.234375 3.875 
Q 9.28125 7.765625 9.28125 18.015625 
L 9.28125 47.703125 
L 2.6875 47.703125 
L 2.6875 54.6875 
L 9.28125 54.6875 
L 9.28125 70.21875 
z
" id="DejaVuSans-116"/>
      <path d="M 8.5 21.578125 
L 8.5 54.6875 
L 17.484375 54.6875 
L 17.484375 21.921875 
Q 17.484375 14.15625 20.5 10.265625 
Q 23.53125 6.390625 29.59375 6.390625 
Q 36.859375 6.390625 41.078125 11.03125 
Q 45.3125 15.671875 45.3125 23.6875 
L 45.3125 54.6875 
L 54.296875 54.6875 
L 54.296875 0 
L 45.3125 0 
L 45.3125 8.40625 
Q 42.046875 3.421875 37.71875 1 
Q 33.40625 -1.421875 27.6875 -1.421875 
Q 18.265625 -1.421875 13.375 4.4375 
Q 8.5 10.296875 8.5 21.578125 
z
M 31.109375 56 
z
" id="DejaVuSans-117"/>
      <path d="M 8.59375 75.984375 
L 29.296875 75.984375 
L 29.296875 69 
L 17.578125 69 
L 17.578125 -6.203125 
L 29.296875 -6.203125 
L 29.296875 -13.1875 
L 8.59375 -13.1875 
z
" id="DejaVuSans-91"/>
      <path d="M 25 67.921875 
Q 21.09375 67.921875 18.40625 65.203125 
Q 15.71875 62.5 15.71875 58.59375 
Q 15.71875 54.734375 18.40625 52.078125 
Q 21.09375 49.421875 25 49.421875 
Q 28.90625 49.421875 31.59375 52.078125 
Q 34.28125 54.734375 34.28125 58.59375 
Q 34.28125 62.453125 31.5625 65.1875 
Q 28.859375 67.921875 25 67.921875 
z
M 25 74.21875 
Q 28.125 74.21875 31 73.015625 
Q 33.890625 71.828125 35.984375 69.578125 
Q 38.234375 67.390625 39.359375 64.59375 
Q 40.484375 61.8125 40.484375 58.59375 
Q 40.484375 52.15625 35.96875 47.6875 
Q 31.453125 43.21875 24.90625 43.21875 
Q 18.3125 43.21875 13.90625 47.609375 
Q 9.515625 52 9.515625 58.59375 
Q 9.515625 65.140625 14 69.671875 
Q 18.5 74.21875 25 74.21875 
z
" id="DejaVuSans-176"/>
      <path d="M 64.40625 67.28125 
L 64.40625 56.890625 
Q 59.421875 61.53125 53.78125 63.8125 
Q 48.140625 66.109375 41.796875 66.109375 
Q 29.296875 66.109375 22.65625 58.46875 
Q 16.015625 50.828125 16.015625 36.375 
Q 16.015625 21.96875 22.65625 14.328125 
Q 29.296875 6.6875 41.796875 6.6875 
Q 48.140625 6.6875 53.78125 8.984375 
Q 59.421875 11.28125 64.40625 15.921875 
L 64.40625 5.609375 
Q 59.234375 2.09375 53.4375 0.328125 
Q 47.65625 -1.421875 41.21875 -1.421875 
Q 24.65625 -1.421875 15.125 8.703125 
Q 5.609375 18.84375 5.609375 36.375 
Q 5.609375 53.953125 15.125 64.078125 
Q 24.65625 74.21875 41.21875 74.21875 
Q 47.75 74.21875 53.53125 72.484375 
Q 59.328125 70.75 64.40625 67.28125 
z
" id="DejaVuSans-67"/>
      <path d="M 30.421875 75.984375 
L 30.421875 -13.1875 
L 9.71875 -13.1875 
L 9.71875 -6.203125 
L 21.390625 -6.203125 
L 21.390625 69 
L 9.71875 69 
L 9.71875 75.984375 
z
" id="DejaVuSans-93"/>
     </defs>
     <g transform="translate(14.798438 380.234531)rotate(-90)scale(0.1 -0.1)">
      <use xlink:href="#DejaVuSans-84"/>
      <use x="60.818359" xlink:href="#DejaVuSans-101"/>
      <use x="122.341797" xlink:href="#DejaVuSans-109"/>
      <use x="219.753906" xlink:href="#DejaVuSans-112"/>
      <use x="283.230469" xlink:href="#DejaVuSans-101"/>
      <use x="344.753906" xlink:href="#DejaVuSans-114"/>
      <use x="385.867188" xlink:href="#DejaVuSans-97"/>
      <use x="447.146484" xlink:href="#DejaVuSans-116"/>
      <use x="486.355469" xlink:href="#DejaVuSans-117"/>
      <use x="549.734375" xlink:href="#DejaVuSans-114"/>
      <use x="590.847656" xlink:href="#DejaVuSans-32"/>
      <use x="622.634766" xlink:href="#DejaVuSans-49"/>
      <use x="686.257812" xlink:href="#DejaVuSans-32"/>
      <use x="718.044922" xlink:href="#DejaVuSans-91"/>
      <use x="757.058594" xlink:href="#DejaVuSans-176"/>
      <use x="807.058594" xlink:href="#DejaVuSans-67"/>
      <use x="876.882812" xlink:href="#DejaVuSans-93"/>
     </g>
    </g>
   </g>
   <g id="line2d_57">
    <path clip-path="url(#p526fd73473)" d="M 40.603125 485.64 
L 43.713926 454.14 
L 46.824728 441.54 
L 53.046331 441.54 
L 56.157132 447.84 
L 59.267933 441.54 
L 65.489536 441.54 
L 68.600338 447.84 
L 71.711139 460.44 
L 84.154345 485.64 
L 90.375947 473.04 
L 93.486749 479.34 
L 96.59755 473.04 
L 99.708351 479.34 
L 102.819153 479.34 
L 109.040756 491.94 
L 112.151557 479.34 
L 115.262358 479.34 
L 118.37316 485.64 
L 121.483961 479.34 
L 124.594763 479.34 
L 127.705564 473.04 
L 130.816365 473.04 
L 133.927167 466.74 
L 137.037968 473.04 
L 140.14877 466.74 
L 143.259571 466.74 
L 146.370372 460.44 
L 149.481174 441.54 
L 155.702777 416.34 
L 158.813578 416.34 
L 165.035181 403.74 
L 171.256784 403.74 
L 174.367585 397.44 
L 177.478386 384.84 
L 180.589188 384.84 
L 183.699989 372.24 
L 186.810791 353.34 
L 189.921592 365.94 
L 199.253996 365.94 
L 202.364797 378.54 
L 205.475599 384.84 
L 208.5864 384.84 
L 211.697202 378.54 
L 214.808003 365.94 
L 217.918804 359.64 
L 221.029606 359.64 
L 224.140407 340.74 
L 227.251209 328.14 
L 230.36201 321.84 
L 233.472811 321.84 
L 236.583613 309.24 
L 239.694414 309.24 
L 242.805216 296.64 
L 245.916017 296.64 
L 249.026818 277.74 
L 252.13762 271.44 
L 255.248421 284.04 
L 261.470024 271.44 
L 264.580825 246.24 
L 270.802428 246.24 
L 273.91323 239.94 
L 277.024031 221.04 
L 280.134832 221.04 
L 283.245634 208.44 
L 286.356435 208.44 
L 289.467236 183.24 
L 292.578038 176.94 
L 295.688839 183.24 
L 298.799641 158.04 
L 301.910442 164.34 
L 305.021243 189.54 
L 308.132045 183.24 
L 311.242846 189.54 
L 314.353648 189.54 
L 317.464449 170.64 
L 320.57525 158.04 
L 323.686052 176.94 
L 326.796853 139.14 
L 333.018456 176.94 
L 336.129257 189.54 
L 339.240059 189.54 
L 342.35086 176.94 
L 354.794066 176.94 
L 357.904867 170.64 
L 361.015669 151.74 
L 364.12647 139.14 
L 367.237271 151.74 
L 370.348073 158.04 
L 373.458874 195.84 
L 376.569676 202.14 
L 379.680477 183.24 
L 382.791278 183.24 
L 392.123682 202.14 
L 395.234484 202.14 
L 398.345285 214.74 
L 401.456087 239.94 
L 404.566888 271.44 
L 407.677689 309.24 
L 410.788491 334.44 
L 413.899292 328.14 
L 417.010094 315.54 
L 423.231696 340.74 
L 426.342498 340.74 
L 429.453299 347.04 
L 432.564101 365.94 
L 435.674902 353.34 
L 441.896505 365.94 
L 445.007306 391.14 
L 448.118108 403.74 
L 451.228909 391.14 
L 454.33971 397.44 
L 457.450512 397.44 
L 460.561313 384.84 
L 463.672115 403.74 
L 473.004519 441.54 
L 476.11532 466.74 
L 479.226122 479.34 
L 485.447724 466.74 
L 488.558526 473.04 
L 491.669327 498.24 
L 494.780128 510.84 
L 497.89093 498.24 
L 501.001731 498.24 
L 513.444937 523.44 
L 516.555738 523.44 
L 519.66654 529.74 
L 522.777341 529.74 
L 528.998944 542.34 
L 532.109745 542.34 
L 535.220547 548.64 
L 541.442149 548.64 
L 544.552951 554.94 
L 550.774554 554.94 
L 553.885355 561.24 
L 560.106958 548.64 
L 563.217759 548.64 
L 566.328561 542.34 
L 569.439362 548.64 
L 572.550163 548.64 
L 575.660965 536.04 
L 581.882568 536.04 
L 584.993369 529.74 
L 588.10417 517.14 
L 591.214972 510.84 
L 597.436574 485.64 
L 600.547376 485.64 
L 603.658177 466.74 
L 606.768979 460.44 
L 609.87978 447.84 
L 612.990581 428.94 
L 616.101383 435.24 
L 619.212184 435.24 
L 622.322986 422.64 
L 625.433787 391.14 
L 628.544588 384.84 
L 631.65539 365.94 
L 634.766191 365.94 
L 637.876993 378.54 
L 640.987794 359.64 
L 644.098595 353.34 
L 647.209397 334.44 
L 650.320198 321.84 
L 653.431 296.64 
L 656.541801 290.34 
L 659.652602 277.74 
L 662.763404 277.74 
L 665.874205 290.34 
L 668.985007 277.74 
L 672.095808 271.44 
L 675.206609 252.54 
L 678.317411 265.14 
L 681.428212 271.44 
L 684.539014 265.14 
L 687.649815 246.24 
L 690.760616 258.84 
L 693.871418 265.14 
L 696.982219 258.84 
L 700.09302 258.84 
L 703.203822 246.24 
L 706.314623 195.84 
L 709.425425 164.34 
L 712.536226 164.34 
L 715.647027 158.04 
L 718.757829 139.14 
L 721.86863 126.54 
L 724.979432 107.64 
L 728.090233 145.44 
L 731.201034 158.04 
L 737.422637 158.04 
L 740.533439 151.74 
L 743.64424 158.04 
L 746.755041 158.04 
L 749.865843 214.74 
L 752.976644 221.04 
L 756.087446 214.74 
L 759.198247 246.24 
L 765.41985 296.64 
L 768.530651 315.54 
L 771.641453 347.04 
L 774.752254 391.14 
L 777.863055 428.94 
L 780.973857 454.14 
L 784.084658 466.74 
L 787.195459 460.44 
L 790.306261 466.74 
L 793.417062 460.44 
L 799.638665 460.44 
L 802.749466 441.54 
L 808.971069 479.34 
L 815.192672 479.34 
L 818.303473 491.94 
L 821.414275 498.24 
L 824.525076 491.94 
L 830.746679 466.74 
L 833.85748 466.74 
L 840.079083 454.14 
L 843.189885 473.04 
L 846.300686 473.04 
L 852.522289 485.64 
L 855.63309 485.64 
L 858.743892 491.94 
L 864.965494 491.94 
L 871.187097 504.54 
L 874.297899 517.14 
L 877.4087 523.44 
L 883.630303 523.44 
L 886.741104 510.84 
L 889.851905 510.84 
L 896.073508 536.04 
L 899.18431 536.04 
L 902.295111 529.74 
L 905.405912 529.74 
L 908.516714 554.94 
L 911.627515 561.24 
L 917.849118 561.24 
L 920.959919 554.94 
L 924.070721 536.04 
L 927.181522 529.74 
L 933.403125 504.54 
L 933.403125 504.54 
" style="fill:none;stroke:#ff0000;stroke-linecap:square;stroke-width:0.75;"/>
   </g>
   <g id="patch_3">
    <path d="M 40.603125 583.92 
L 40.603125 84.96 
" style="fill:none;stroke:#000000;stroke-linecap:square;stroke-linejoin:miter;stroke-width:0.8;"/>
   </g>
   <g id="patch_4">
    <path d="M 933.403125 583.92 
L 933.403125 84.96 
" style="fill:none;stroke:#000000;stroke-linecap:square;stroke-linejoin:miter;stroke-width:0.8;"/>
   </g>
   <g id="patch_5">
    <path d="M 40.603125 583.92 
L 933.403125 583.92 
" style="fill:none;stroke:#000000;stroke-linecap:square;stroke-linejoin:miter;stroke-width:0.8;"/>
   </g>
   <g id="patch_6">
    <path d="M 40.603125 84.96 
L 933.403125 84.96 
" style="fill:none;stroke:#000000;stroke-linecap:square;stroke-linejoin:miter;stroke-width:0.8;"/>
   </g>
  </g>
  <g id="axes_2">
   <g id="matplotlib.axis_3">
    <g id="ytick_9">
     <g id="line2d_58">
      <defs>
       <path d="M 0 0 
L 3.5 0 
" id="md80b3d3fda" style="stroke:#000000;stroke-width:0.8;"/>
      </defs>
      <g>
       <use style="stroke:#000000;stroke-width:0.8;" x="933.403125" xlink:href="#md80b3d3fda" y="583.92"/>
      </g>
     </g>
     <g id="text_34">
      <!-- 0.0 -->
      <g transform="translate(940.403125 587.719219)scale(0.1 -0.1)">
       <use xlink:href="#DejaVuSans-48"/>
       <use x="63.623047" xlink:href="#DejaVuSans-46"/>
       <use x="95.410156" xlink:href="#DejaVuSans-48"/>
      </g>
     </g>
    </g>
    <g id="ytick_10">
     <g id="line2d_59">
      <g>
       <use style="stroke:#000000;stroke-width:0.8;" x="933.403125" xlink:href="#md80b3d3fda" y="484.128"/>
      </g>
     </g>
     <g id="text_35">
      <!-- 0.2 -->
      <g transform="translate(940.403125 487.927219)scale(0.1 -0.1)">
       <use xlink:href="#DejaVuSans-48"/>
       <use x="63.623047" xlink:href="#DejaVuSans-46"/>
       <use x="95.410156" xlink:href="#DejaVuSans-50"/>
      </g>
     </g>
    </g>
    <g id="ytick_11">
     <g id="line2d_60">
      <g>
       <use style="stroke:#000000;stroke-width:0.8;" x="933.403125" xlink:href="#md80b3d3fda" y="384.336"/>
      </g>
     </g>
     <g id="text_36">
      <!-- 0.4 -->
      <g transform="translate(940.403125 388.135219)scale(0.1 -0.1)">
       <use xlink:href="#DejaVuSans-48"/>
       <use x="63.623047" xlink:href="#DejaVuSans-46"/>
       <use x="95.410156" xlink:href="#DejaVuSans-52"/>
      </g>
     </g>
    </g>
    <g id="ytick_12">
     <g id="line2d_61">
      <g>
       <use style="stroke:#000000;stroke-width:0.8;" x="933.403125" xlink:href="#md80b3d3fda" y="284.544"/>
      </g>
     </g>
     <g id="text_37">
      <!-- 0.6 -->
      <g transform="translate(940.403125 288.343219)scale(0.1 -0.1)">
       <use xlink:href="#DejaVuSans-48"/>
       <use x="63.623047" xlink:href="#DejaVuSans-46"/>
       <use x="95.410156" xlink:href="#DejaVuSans-54"/>
      </g>
     </g>
    </g>
    <g id="ytick_13">
     <g id="line2d_62">
      <g>
       <use style="stroke:#000000;stroke-width:0.8;" x="933.403125" xlink:href="#md80b3d3fda" y="184.752"/>
      </g>
     </g>
     <g id="text_38">
      <!-- 0.8 -->
      <g transform="translate(940.403125 188.551219)scale(0.1 -0.1)">
       <use xlink:href="#DejaVuSans-48"/>
       <use x="63.623047" xlink:href="#DejaVuSans-46"/>
       <use x="95.410156" xlink:href="#DejaVuSans-56"/>
      </g>
     </g>
    </g>
    <g id="ytick_14">
     <g id="line2d_63">
      <g>
       <use style="stroke:#000000;stroke-width:0.8;" x="933.403125" xlink:href="#md80b3d3fda" y="84.96"/>
      </g>
     </g>
     <g id="text_39">
      <!-- 1.0 -->
      <g transform="translate(940.403125 88.759219)scale(0.1 -0.1)">
       <use xlink:href="#DejaVuSans-49"/>
       <use x="63.623047" xlink:href="#DejaVuSans-46"/>
       <use x="95.410156" xlink:href="#DejaVuSans-48"/>
      </g>
     </g>
    </g>
   </g>
   <g id="patch_7">
    <path d="M 40.603125 583.92 
L 40.603125 84.96 
" style="fill:none;stroke:#000000;stroke-linecap:square;stroke-linejoin:miter;stroke-width:0.8;"/>
   </g>
   <g id="patch_8">
    <path d="M 933.403125 583.92 
L 933.403125 84.96 
" style="fill:none;stroke:#000000;stroke-linecap:square;stroke-linejoin:miter;stroke-width:0.8;"/>
   </g>
   <g id="patch_9">
    <path d="M 40.603125 583.92 
L 933.403125 583.92 
" style="fill:none;stroke:#000000;stroke-linecap:square;stroke-linejoin:miter;stroke-width:0.8;"/>
   </g>
   <g id="patch_10">
    <path d="M 40.603125 84.96 
L 933.403125 84.96 
" style="fill:none;stroke:#000000;stroke-linecap:square;stroke-linejoin:miter;stroke-width:0.8;"/>
   </g>
  </g>
  <g id="text_40">
   <!-- Weather from 07.06.18 to 08.06.18 -->
   <defs>
    <path d="M 3.328125 72.90625 
L 13.28125 72.90625 
L 28.609375 11.28125 
L 43.890625 72.90625 
L 54.984375 72.90625 
L 70.3125 11.28125 
L 85.59375 72.90625 
L 95.609375 72.90625 
L 77.296875 0 
L 64.890625 0 
L 49.515625 63.28125 
L 33.984375 0 
L 21.578125 0 
z
" id="DejaVuSans-87"/>
    <path d="M 54.890625 33.015625 
L 54.890625 0 
L 45.90625 0 
L 45.90625 32.71875 
Q 45.90625 40.484375 42.875 44.328125 
Q 39.84375 48.1875 33.796875 48.1875 
Q 26.515625 48.1875 22.3125 43.546875 
Q 18.109375 38.921875 18.109375 30.90625 
L 18.109375 0 
L 9.078125 0 
L 9.078125 75.984375 
L 18.109375 75.984375 
L 18.109375 46.1875 
Q 21.34375 51.125 25.703125 53.5625 
Q 30.078125 56 35.796875 56 
Q 45.21875 56 50.046875 50.171875 
Q 54.890625 44.34375 54.890625 33.015625 
z
" id="DejaVuSans-104"/>
    <path d="M 37.109375 75.984375 
L 37.109375 68.5 
L 28.515625 68.5 
Q 23.6875 68.5 21.796875 66.546875 
Q 19.921875 64.59375 19.921875 59.515625 
L 19.921875 54.6875 
L 34.71875 54.6875 
L 34.71875 47.703125 
L 19.921875 47.703125 
L 19.921875 0 
L 10.890625 0 
L 10.890625 47.703125 
L 2.296875 47.703125 
L 2.296875 54.6875 
L 10.890625 54.6875 
L 10.890625 58.5 
Q 10.890625 67.625 15.140625 71.796875 
Q 19.390625 75.984375 28.609375 75.984375 
z
" id="DejaVuSans-102"/>
    <path d="M 30.609375 48.390625 
Q 23.390625 48.390625 19.1875 42.75 
Q 14.984375 37.109375 14.984375 27.296875 
Q 14.984375 17.484375 19.15625 11.84375 
Q 23.34375 6.203125 30.609375 6.203125 
Q 37.796875 6.203125 41.984375 11.859375 
Q 46.1875 17.53125 46.1875 27.296875 
Q 46.1875 37.015625 41.984375 42.703125 
Q 37.796875 48.390625 30.609375 48.390625 
z
M 30.609375 56 
Q 42.328125 56 49.015625 48.375 
Q 55.71875 40.765625 55.71875 27.296875 
Q 55.71875 13.875 49.015625 6.21875 
Q 42.328125 -1.421875 30.609375 -1.421875 
Q 18.84375 -1.421875 12.171875 6.21875 
Q 5.515625 13.875 5.515625 27.296875 
Q 5.515625 40.765625 12.171875 48.375 
Q 18.84375 56 30.609375 56 
z
" id="DejaVuSans-111"/>
   </defs>
   <g transform="translate(187.828125 31.515)scale(0.32 -0.32)">
    <use xlink:href="#DejaVuSans-87"/>
    <use x="98.798828" xlink:href="#DejaVuSans-101"/>
    <use x="160.322266" xlink:href="#DejaVuSans-97"/>
    <use x="221.601562" xlink:href="#DejaVuSans-116"/>
    <use x="260.810547" xlink:href="#DejaVuSans-104"/>
    <use x="324.189453" xlink:href="#DejaVuSans-101"/>
    <use x="385.712891" xlink:href="#DejaVuSans-114"/>
    <use x="426.826172" xlink:href="#DejaVuSans-32"/>
    <use x="458.613281" xlink:href="#DejaVuSans-102"/>
    <use x="493.818359" xlink:href="#DejaVuSans-114"/>
    <use x="534.900391" xlink:href="#DejaVuSans-111"/>
    <use x="596.082031" xlink:href="#DejaVuSans-109"/>
    <use x="693.494141" xlink:href="#DejaVuSans-32"/>
    <use x="725.28125" xlink:href="#DejaVuSans-48"/>
    <use x="788.904297" xlink:href="#DejaVuSans-55"/>
    <use x="852.527344" xlink:href="#DejaVuSans-46"/>
    <use x="884.314453" xlink:href="#DejaVuSans-48"/>
    <use x="947.9375" xlink:href="#DejaVuSans-54"/>
    <use x="1011.560547" xlink:href="#DejaVuSans-46"/>
    <use x="1043.347656" xlink:href="#DejaVuSans-49"/>
    <use x="1106.970703" xlink:href="#DejaVuSans-56"/>
    <use x="1170.59375" xlink:href="#DejaVuSans-32"/>
    <use x="1202.380859" xlink:href="#DejaVuSans-116"/>
    <use x="1241.589844" xlink:href="#DejaVuSans-111"/>
    <use x="1302.771484" xlink:href="#DejaVuSans-32"/>
    <use x="1334.558594" xlink:href="#DejaVuSans-48"/>
    <use x="1398.181641" xlink:href="#DejaVuSans-56"/>
    <use x="1461.804688" xlink:href="#DejaVuSans-46"/>
    <use x="1493.591797" xlink:href="#DejaVuSans-48"/>
    <use x="1557.214844" xlink:href="#DejaVuSans-54"/>
    <use x="1620.837891" xlink:href="#DejaVuSans-46"/>
    <use x="1652.625" xlink:href="#DejaVuSans-49"/>
    <use x="1716.248047" xlink:href="#DejaVuSans-56"/>
   </g>
  </g>
 </g>
 <defs>
  <clipPath id="p526fd73473">
   <rect height="498.96" width="892.8" x="40.603125" y="84.96"/>
  </clipPath>
 </defs>
</svg>
