<?xml version="1.0" encoding="utf-8" standalone="no"?>
<!DOCTYPE svg PUBLIC "-//W3C//DTD SVG 1.1//EN"
  "http://www.w3.org/Graphics/SVG/1.1/DTD/svg11.dtd">
<!-- Created with matplotlib (https://matplotlib.org/) -->
<svg height="674.648125pt" version="1.1" viewBox="0 0 963.50625 674.648125" width="963.50625pt" xmlns="http://www.w3.org/2000/svg" xmlns:xlink="http://www.w3.org/1999/xlink">
 <defs>
  <style type="text/css">
*{stroke-linecap:butt;stroke-linejoin:round;}
  </style>
 </defs>
 <g id="figure_1">
  <g id="patch_1">
   <path d="M 0 674.648125 
L 963.50625 674.648125 
L 963.50625 0 
L 0 0 
z
" style="fill:#ffffff;"/>
  </g>
  <g id="axes_1">
   <g id="patch_2">
    <path d="M 40.603125 583.92 
L 933.403125 583.92 
L 933.403125 84.96 
L 40.603125 84.96 
z
" style="fill:#ffffff;"/>
   </g>
   <g id="PolyCollection_1">
    <defs>
     <path d="M 42.930145 -190.852027 
L 42.930145 -212.978857 
L 47.584185 -224.042271 
L 52.238225 -216.666662 
L 56.892265 -201.915442 
L 61.546305 -231.417881 
L 66.200345 -283.047149 
L 70.854385 -323.613003 
L 75.508425 -327.300808 
L 80.162465 -364.178857 
L 84.816505 -375.242271 
L 89.470545 -404.74471 
L 94.124585 -412.12032 
L 98.778625 -404.74471 
L 103.432665 -393.681296 
L 108.086704 -419.49593 
L 112.740744 -441.622759 
L 117.394784 -437.934954 
L 122.048824 -408.432515 
L 126.702864 -371.554466 
L 131.356904 -205.603247 
L 136.010944 -201.915442 
L 140.664984 -194.539832 
L 145.319024 -179.788613 
L 149.973064 -209.291052 
L 154.627104 -176.100808 
L 159.281144 -172.413003 
L 163.935184 -172.413003 
L 168.589224 -157.661784 
L 173.243264 -183.476418 
L 177.897304 -231.417881 
L 182.551344 -301.486174 
L 187.205384 -327.300808 
L 191.859424 -360.491052 
L 196.513464 -393.681296 
L 201.167504 -408.432515 
L 205.821544 -430.559345 
L 210.475584 -452.686174 
L 215.129624 -463.749588 
L 219.783664 -463.749588 
L 224.437704 -471.125198 
L 229.091744 -471.125198 
L 233.745784 -467.437393 
L 238.399824 -471.125198 
L 243.053863 -426.87154 
L 247.707903 -338.364223 
L 252.361943 -308.861784 
L 257.015983 -279.359345 
L 261.670023 -257.232515 
L 266.324063 -235.105686 
L 270.978103 -231.417881 
L 275.632143 -194.539832 
L 280.286183 -183.476418 
L 284.940223 -227.730076 
L 289.594263 -294.110564 
L 294.248303 -319.925198 
L 298.902343 -367.866662 
L 303.556383 -419.49593 
L 308.210423 -434.247149 
L 312.864463 -448.998369 
L 317.518503 -478.500808 
L 322.172543 -496.939832 
L 326.826583 -537.505686 
L 331.480623 -555.94471 
L 336.134663 -555.94471 
L 340.788703 -552.256905 
L 345.442743 -544.881296 
L 350.096783 -508.003247 
L 354.750823 -463.749588 
L 359.404863 -415.808125 
L 364.058903 -408.432515 
L 368.712943 -371.554466 
L 373.366983 -330.988613 
L 378.021022 -316.237393 
L 382.675062 -294.110564 
L 387.329102 -334.676418 
L 391.983142 -338.364223 
L 396.637182 -323.613003 
L 401.291222 -330.988613 
L 405.945262 -371.554466 
L 410.599302 -408.432515 
L 415.253342 -434.247149 
L 419.907382 -460.061784 
L 424.561422 -482.188613 
L 429.215462 -515.378857 
L 433.869502 -544.881296 
L 438.523542 -567.008125 
L 443.177582 -555.94471 
L 447.831622 -533.817881 
L 452.485662 -452.686174 
L 457.139702 -393.681296 
L 461.793742 -342.052027 
L 466.447782 -316.237393 
L 471.101822 -312.549588 
L 475.755862 -283.047149 
L 480.409902 -238.793491 
L 485.063942 -227.730076 
L 489.717982 -205.603247 
L 494.372022 -194.539832 
L 499.026062 -176.100808 
L 503.680102 -161.349588 
L 508.334142 -190.852027 
L 512.988181 -286.734954 
L 517.642221 -338.364223 
L 522.296261 -375.242271 
L 526.950301 -397.369101 
L 531.604341 -412.12032 
L 536.258381 -460.061784 
L 540.912421 -478.500808 
L 545.566461 -493.252027 
L 550.220501 -530.130076 
L 554.874541 -552.256905 
L 559.528581 -567.008125 
L 564.182621 -567.008125 
L 568.836661 -567.008125 
L 573.490701 -537.505686 
L 578.144741 -511.691052 
L 582.798781 -448.998369 
L 587.452821 -386.305686 
L 592.106861 -349.427637 
L 596.760901 -330.988613 
L 601.414941 -319.925198 
L 606.068981 -290.422759 
L 610.723021 -330.988613 
L 615.377061 -330.988613 
L 620.031101 -330.988613 
L 624.685141 -360.491052 
L 629.339181 -397.369101 
L 633.993221 -412.12032 
L 638.647261 -445.310564 
L 643.3013 -467.437393 
L 647.95534 -496.939832 
L 652.60938 -519.066662 
L 657.26342 -544.881296 
L 661.91746 -493.252027 
L 666.5715 -452.686174 
L 671.22554 -283.047149 
L 675.87958 -301.486174 
L 680.53362 -323.613003 
L 685.18766 -338.364223 
L 689.8417 -334.676418 
L 694.49574 -330.988613 
L 699.14978 -301.486174 
L 703.80382 -283.047149 
L 708.45786 -264.608125 
L 713.1119 -305.173979 
L 717.76594 -305.173979 
L 722.41998 -286.734954 
L 727.07402 -286.734954 
L 731.72806 -286.734954 
L 736.3821 -305.173979 
L 741.03614 -327.300808 
L 745.69018 -356.803247 
L 750.34422 -349.427637 
L 754.99826 -364.178857 
L 759.6523 -389.993491 
L 764.30634 -404.74471 
L 768.96038 -434.247149 
L 773.61442 -471.125198 
L 778.268459 -467.437393 
L 782.922499 -482.188613 
L 787.576539 -460.061784 
L 792.230579 -482.188613 
L 796.884619 -456.373979 
L 801.538659 -445.310564 
L 806.192699 -378.930076 
L 810.846739 -356.803247 
L 815.500779 -338.364223 
L 820.154819 -312.549588 
L 824.808859 -286.734954 
L 829.462899 -264.608125 
L 834.116939 -249.856905 
L 838.770979 -242.481296 
L 843.425019 -249.856905 
L 848.079059 -279.359345 
L 852.733099 -312.549588 
L 857.387139 -349.427637 
L 862.041179 -389.993491 
L 866.695219 -404.74471 
L 871.349259 -419.49593 
L 876.003299 -467.437393 
L 880.657339 -500.627637 
L 885.311379 -474.813003 
L 889.965419 -437.934954 
L 894.619459 -378.930076 
L 899.273499 -305.173979 
L 903.927539 -294.110564 
L 908.581579 -297.798369 
L 913.235618 -286.734954 
L 917.889658 -275.67154 
L 922.543698 -264.608125 
L 927.197738 -253.54471 
L 931.851778 -268.29593 
L 931.851778 -235.105686 
L 931.851778 -235.105686 
L 927.197738 -235.105686 
L 922.543698 -249.856905 
L 917.889658 -257.232515 
L 913.235618 -275.67154 
L 908.581579 -275.67154 
L 903.927539 -271.983735 
L 899.273499 -290.422759 
L 894.619459 -290.422759 
L 889.965419 -389.993491 
L 885.311379 -471.125198 
L 880.657339 -467.437393 
L 876.003299 -408.432515 
L 871.349259 -404.74471 
L 866.695219 -393.681296 
L 862.041179 -342.052027 
L 857.387139 -308.861784 
L 852.733099 -279.359345 
L 848.079059 -249.856905 
L 843.425019 -242.481296 
L 838.770979 -235.105686 
L 834.116939 -242.481296 
L 829.462899 -253.54471 
L 824.808859 -264.608125 
L 820.154819 -283.047149 
L 815.500779 -319.925198 
L 810.846739 -327.300808 
L 806.192699 -360.491052 
L 801.538659 -367.866662 
L 796.884619 -445.310564 
L 792.230579 -448.998369 
L 787.576539 -452.686174 
L 782.922499 -452.686174 
L 778.268459 -452.686174 
L 773.61442 -441.622759 
L 768.96038 -419.49593 
L 764.30634 -389.993491 
L 759.6523 -371.554466 
L 754.99826 -338.364223 
L 750.34422 -338.364223 
L 745.69018 -327.300808 
L 741.03614 -312.549588 
L 736.3821 -286.734954 
L 731.72806 -279.359345 
L 727.07402 -275.67154 
L 722.41998 -279.359345 
L 717.76594 -290.422759 
L 713.1119 -279.359345 
L 708.45786 -253.54471 
L 703.80382 -268.29593 
L 699.14978 -249.856905 
L 694.49574 -283.047149 
L 689.8417 -323.613003 
L 685.18766 -316.237393 
L 680.53362 -283.047149 
L 675.87958 -271.983735 
L 671.22554 -264.608125 
L 666.5715 -330.988613 
L 661.91746 -463.749588 
L 657.26342 -493.252027 
L 652.60938 -496.939832 
L 647.95534 -452.686174 
L 643.3013 -456.373979 
L 638.647261 -415.808125 
L 633.993221 -389.993491 
L 629.339181 -371.554466 
L 624.685141 -338.364223 
L 620.031101 -323.613003 
L 615.377061 -319.925198 
L 610.723021 -283.047149 
L 606.068981 -286.734954 
L 601.414941 -286.734954 
L 596.760901 -316.237393 
L 592.106861 -330.988613 
L 587.452821 -353.115442 
L 582.798781 -382.617881 
L 578.144741 -437.934954 
L 573.490701 -519.066662 
L 568.836661 -541.193491 
L 564.182621 -563.32032 
L 559.528581 -552.256905 
L 554.874541 -533.817881 
L 550.220501 -500.627637 
L 545.566461 -482.188613 
L 540.912421 -460.061784 
L 536.258381 -434.247149 
L 531.604341 -378.930076 
L 526.950301 -367.866662 
L 522.296261 -342.052027 
L 517.642221 -319.925198 
L 512.988181 -183.476418 
L 508.334142 -168.725198 
L 503.680102 -150.286174 
L 499.026062 -165.037393 
L 494.372022 -165.037393 
L 489.717982 -194.539832 
L 485.063942 -201.915442 
L 480.409902 -231.417881 
L 475.755862 -242.481296 
L 471.101822 -283.047149 
L 466.447782 -305.173979 
L 461.793742 -305.173979 
L 457.139702 -349.427637 
L 452.485662 -404.74471 
L 447.831622 -460.061784 
L 443.177582 -533.817881 
L 438.523542 -555.94471 
L 433.869502 -522.754466 
L 429.215462 -482.188613 
L 424.561422 -463.749588 
L 419.907382 -441.622759 
L 415.253342 -415.808125 
L 410.599302 -378.930076 
L 405.945262 -334.676418 
L 401.291222 -323.613003 
L 396.637182 -301.486174 
L 391.983142 -323.613003 
L 387.329102 -286.734954 
L 382.675062 -257.232515 
L 378.021022 -286.734954 
L 373.366983 -316.237393 
L 368.712943 -334.676418 
L 364.058903 -349.427637 
L 359.404863 -404.74471 
L 354.750823 -408.432515 
L 350.096783 -474.813003 
L 345.442743 -515.378857 
L 340.788703 -541.193491 
L 336.134663 -544.881296 
L 331.480623 -537.505686 
L 326.826583 -504.315442 
L 322.172543 -482.188613 
L 317.518503 -460.061784 
L 312.864463 -430.559345 
L 308.210423 -412.12032 
L 303.556383 -382.617881 
L 298.902343 -330.988613 
L 294.248303 -297.798369 
L 289.594263 -212.978857 
L 284.940223 -179.788613 
L 280.286183 -172.413003 
L 275.632143 -172.413003 
L 270.978103 -194.539832 
L 266.324063 -227.730076 
L 261.670023 -235.105686 
L 257.015983 -253.54471 
L 252.361943 -286.734954 
L 247.707903 -305.173979 
L 243.053863 -334.676418 
L 238.399824 -452.686174 
L 233.745784 -448.998369 
L 229.091744 -448.998369 
L 224.437704 -456.373979 
L 219.783664 -445.310564 
L 215.129624 -441.622759 
L 210.475584 -430.559345 
L 205.821544 -415.808125 
L 201.167504 -386.305686 
L 196.513464 -356.803247 
L 191.859424 -327.300808 
L 187.205384 -283.047149 
L 182.551344 -268.29593 
L 177.897304 -194.539832 
L 173.243264 -131.847149 
L 168.589224 -113.408125 
L 163.935184 -128.159345 
L 159.281144 -172.413003 
L 154.627104 -153.973979 
L 149.973064 -142.910564 
L 145.319024 -153.973979 
L 140.664984 -172.413003 
L 136.010944 -183.476418 
L 131.356904 -187.164223 
L 126.702864 -216.666662 
L 122.048824 -382.617881 
L 117.394784 -404.74471 
L 112.740744 -423.183735 
L 108.086704 -404.74471 
L 103.432665 -382.617881 
L 98.778625 -386.305686 
L 94.124585 -382.617881 
L 89.470545 -382.617881 
L 84.816505 -360.491052 
L 80.162465 -334.676418 
L 75.508425 -316.237393 
L 70.854385 -301.486174 
L 66.200345 -235.105686 
L 61.546305 -190.852027 
L 56.892265 -172.413003 
L 52.238225 -201.915442 
L 47.584185 -201.915442 
L 42.930145 -190.852027 
z
" id="m2b3ddd868a" style="stroke:#ff0000;stroke-opacity:0.2;"/>
    </defs>
    <g clip-path="url(#p04fdf0580a)">
     <use style="fill:#ff0000;fill-opacity:0.2;stroke:#ff0000;stroke-opacity:0.2;" x="0" xlink:href="#m2b3ddd868a" y="674.648125"/>
    </g>
   </g>
   <g id="matplotlib.axis_1">
    <g id="xtick_1">
     <g id="line2d_1">
      <path clip-path="url(#p04fdf0580a)" d="M 40.603125 583.92 
L 40.603125 84.96 
" style="fill:none;stroke:#b0b0b0;stroke-linecap:square;stroke-width:0.8;"/>
     </g>
     <g id="line2d_2">
      <defs>
       <path d="M 0 0 
L 0 3.5 
" id="mdb7bfcd71e" style="stroke:#000000;stroke-width:0.8;"/>
      </defs>
      <g>
       <use style="stroke:#000000;stroke-width:0.8;" x="40.603125" xlink:href="#mdb7bfcd71e" y="583.92"/>
      </g>
     </g>
     <g id="text_1">
      <!-- 01.06.18 00:00 -->
      <defs>
       <path d="M 31.78125 66.40625 
Q 24.171875 66.40625 20.328125 58.90625 
Q 16.5 51.421875 16.5 36.375 
Q 16.5 21.390625 20.328125 13.890625 
Q 24.171875 6.390625 31.78125 6.390625 
Q 39.453125 6.390625 43.28125 13.890625 
Q 47.125 21.390625 47.125 36.375 
Q 47.125 51.421875 43.28125 58.90625 
Q 39.453125 66.40625 31.78125 66.40625 
z
M 31.78125 74.21875 
Q 44.046875 74.21875 50.515625 64.515625 
Q 56.984375 54.828125 56.984375 36.375 
Q 56.984375 17.96875 50.515625 8.265625 
Q 44.046875 -1.421875 31.78125 -1.421875 
Q 19.53125 -1.421875 13.0625 8.265625 
Q 6.59375 17.96875 6.59375 36.375 
Q 6.59375 54.828125 13.0625 64.515625 
Q 19.53125 74.21875 31.78125 74.21875 
z
" id="DejaVuSans-48"/>
       <path d="M 12.40625 8.296875 
L 28.515625 8.296875 
L 28.515625 63.921875 
L 10.984375 60.40625 
L 10.984375 69.390625 
L 28.421875 72.90625 
L 38.28125 72.90625 
L 38.28125 8.296875 
L 54.390625 8.296875 
L 54.390625 0 
L 12.40625 0 
z
" id="DejaVuSans-49"/>
       <path d="M 10.6875 12.40625 
L 21 12.40625 
L 21 0 
L 10.6875 0 
z
" id="DejaVuSans-46"/>
       <path d="M 33.015625 40.375 
Q 26.375 40.375 22.484375 35.828125 
Q 18.609375 31.296875 18.609375 23.390625 
Q 18.609375 15.53125 22.484375 10.953125 
Q 26.375 6.390625 33.015625 6.390625 
Q 39.65625 6.390625 43.53125 10.953125 
Q 47.40625 15.53125 47.40625 23.390625 
Q 47.40625 31.296875 43.53125 35.828125 
Q 39.65625 40.375 33.015625 40.375 
z
M 52.59375 71.296875 
L 52.59375 62.3125 
Q 48.875 64.0625 45.09375 64.984375 
Q 41.3125 65.921875 37.59375 65.921875 
Q 27.828125 65.921875 22.671875 59.328125 
Q 17.53125 52.734375 16.796875 39.40625 
Q 19.671875 43.65625 24.015625 45.921875 
Q 28.375 48.1875 33.59375 48.1875 
Q 44.578125 48.1875 50.953125 41.515625 
Q 57.328125 34.859375 57.328125 23.390625 
Q 57.328125 12.15625 50.6875 5.359375 
Q 44.046875 -1.421875 33.015625 -1.421875 
Q 20.359375 -1.421875 13.671875 8.265625 
Q 6.984375 17.96875 6.984375 36.375 
Q 6.984375 53.65625 15.1875 63.9375 
Q 23.390625 74.21875 37.203125 74.21875 
Q 40.921875 74.21875 44.703125 73.484375 
Q 48.484375 72.75 52.59375 71.296875 
z
" id="DejaVuSans-54"/>
       <path d="M 31.78125 34.625 
Q 24.75 34.625 20.71875 30.859375 
Q 16.703125 27.09375 16.703125 20.515625 
Q 16.703125 13.921875 20.71875 10.15625 
Q 24.75 6.390625 31.78125 6.390625 
Q 38.8125 6.390625 42.859375 10.171875 
Q 46.921875 13.96875 46.921875 20.515625 
Q 46.921875 27.09375 42.890625 30.859375 
Q 38.875 34.625 31.78125 34.625 
z
M 21.921875 38.8125 
Q 15.578125 40.375 12.03125 44.71875 
Q 8.5 49.078125 8.5 55.328125 
Q 8.5 64.0625 14.71875 69.140625 
Q 20.953125 74.21875 31.78125 74.21875 
Q 42.671875 74.21875 48.875 69.140625 
Q 55.078125 64.0625 55.078125 55.328125 
Q 55.078125 49.078125 51.53125 44.71875 
Q 48 40.375 41.703125 38.8125 
Q 48.828125 37.15625 52.796875 32.3125 
Q 56.78125 27.484375 56.78125 20.515625 
Q 56.78125 9.90625 50.3125 4.234375 
Q 43.84375 -1.421875 31.78125 -1.421875 
Q 19.734375 -1.421875 13.25 4.234375 
Q 6.78125 9.90625 6.78125 20.515625 
Q 6.78125 27.484375 10.78125 32.3125 
Q 14.796875 37.15625 21.921875 38.8125 
z
M 18.3125 54.390625 
Q 18.3125 48.734375 21.84375 45.5625 
Q 25.390625 42.390625 31.78125 42.390625 
Q 38.140625 42.390625 41.71875 45.5625 
Q 45.3125 48.734375 45.3125 54.390625 
Q 45.3125 60.0625 41.71875 63.234375 
Q 38.140625 66.40625 31.78125 66.40625 
Q 25.390625 66.40625 21.84375 63.234375 
Q 18.3125 60.0625 18.3125 54.390625 
z
" id="DejaVuSans-56"/>
       <path id="DejaVuSans-32"/>
       <path d="M 11.71875 12.40625 
L 22.015625 12.40625 
L 22.015625 0 
L 11.71875 0 
z
M 11.71875 51.703125 
L 22.015625 51.703125 
L 22.015625 39.3125 
L 11.71875 39.3125 
z
" id="DejaVuSans-58"/>
      </defs>
      <g transform="translate(43.3625 667.448125)rotate(-90)scale(0.1 -0.1)">
       <use xlink:href="#DejaVuSans-48"/>
       <use x="63.623047" xlink:href="#DejaVuSans-49"/>
       <use x="127.246094" xlink:href="#DejaVuSans-46"/>
       <use x="159.033203" xlink:href="#DejaVuSans-48"/>
       <use x="222.65625" xlink:href="#DejaVuSans-54"/>
       <use x="286.279297" xlink:href="#DejaVuSans-46"/>
       <use x="318.066406" xlink:href="#DejaVuSans-49"/>
       <use x="381.689453" xlink:href="#DejaVuSans-56"/>
       <use x="445.3125" xlink:href="#DejaVuSans-32"/>
       <use x="477.099609" xlink:href="#DejaVuSans-48"/>
       <use x="540.722656" xlink:href="#DejaVuSans-48"/>
       <use x="604.345703" xlink:href="#DejaVuSans-58"/>
       <use x="638.037109" xlink:href="#DejaVuSans-48"/>
       <use x="701.660156" xlink:href="#DejaVuSans-48"/>
      </g>
     </g>
    </g>
    <g id="xtick_2">
     <g id="line2d_3">
      <path clip-path="url(#p04fdf0580a)" d="M 79.420516 583.92 
L 79.420516 84.96 
" style="fill:none;stroke:#b0b0b0;stroke-linecap:square;stroke-width:0.8;"/>
     </g>
     <g id="line2d_4">
      <g>
       <use style="stroke:#000000;stroke-width:0.8;" x="79.420516" xlink:href="#mdb7bfcd71e" y="583.92"/>
      </g>
     </g>
     <g id="text_2">
      <!-- 01.06.18 08:20 -->
      <defs>
       <path d="M 19.1875 8.296875 
L 53.609375 8.296875 
L 53.609375 0 
L 7.328125 0 
L 7.328125 8.296875 
Q 12.9375 14.109375 22.625 23.890625 
Q 32.328125 33.6875 34.8125 36.53125 
Q 39.546875 41.84375 41.421875 45.53125 
Q 43.3125 49.21875 43.3125 52.78125 
Q 43.3125 58.59375 39.234375 62.25 
Q 35.15625 65.921875 28.609375 65.921875 
Q 23.96875 65.921875 18.8125 64.3125 
Q 13.671875 62.703125 7.8125 59.421875 
L 7.8125 69.390625 
Q 13.765625 71.78125 18.9375 73 
Q 24.125 74.21875 28.421875 74.21875 
Q 39.75 74.21875 46.484375 68.546875 
Q 53.21875 62.890625 53.21875 53.421875 
Q 53.21875 48.921875 51.53125 44.890625 
Q 49.859375 40.875 45.40625 35.40625 
Q 44.1875 33.984375 37.640625 27.21875 
Q 31.109375 20.453125 19.1875 8.296875 
z
" id="DejaVuSans-50"/>
      </defs>
      <g transform="translate(82.179891 667.448125)rotate(-90)scale(0.1 -0.1)">
       <use xlink:href="#DejaVuSans-48"/>
       <use x="63.623047" xlink:href="#DejaVuSans-49"/>
       <use x="127.246094" xlink:href="#DejaVuSans-46"/>
       <use x="159.033203" xlink:href="#DejaVuSans-48"/>
       <use x="222.65625" xlink:href="#DejaVuSans-54"/>
       <use x="286.279297" xlink:href="#DejaVuSans-46"/>
       <use x="318.066406" xlink:href="#DejaVuSans-49"/>
       <use x="381.689453" xlink:href="#DejaVuSans-56"/>
       <use x="445.3125" xlink:href="#DejaVuSans-32"/>
       <use x="477.099609" xlink:href="#DejaVuSans-48"/>
       <use x="540.722656" xlink:href="#DejaVuSans-56"/>
       <use x="604.345703" xlink:href="#DejaVuSans-58"/>
       <use x="638.037109" xlink:href="#DejaVuSans-50"/>
       <use x="701.660156" xlink:href="#DejaVuSans-48"/>
      </g>
     </g>
    </g>
    <g id="xtick_3">
     <g id="line2d_5">
      <path clip-path="url(#p04fdf0580a)" d="M 118.237908 583.92 
L 118.237908 84.96 
" style="fill:none;stroke:#b0b0b0;stroke-linecap:square;stroke-width:0.8;"/>
     </g>
     <g id="line2d_6">
      <g>
       <use style="stroke:#000000;stroke-width:0.8;" x="118.237908" xlink:href="#mdb7bfcd71e" y="583.92"/>
      </g>
     </g>
     <g id="text_3">
      <!-- 01.06.18 16:40 -->
      <defs>
       <path d="M 37.796875 64.3125 
L 12.890625 25.390625 
L 37.796875 25.390625 
z
M 35.203125 72.90625 
L 47.609375 72.90625 
L 47.609375 25.390625 
L 58.015625 25.390625 
L 58.015625 17.1875 
L 47.609375 17.1875 
L 47.609375 0 
L 37.796875 0 
L 37.796875 17.1875 
L 4.890625 17.1875 
L 4.890625 26.703125 
z
" id="DejaVuSans-52"/>
      </defs>
      <g transform="translate(120.997283 667.448125)rotate(-90)scale(0.1 -0.1)">
       <use xlink:href="#DejaVuSans-48"/>
       <use x="63.623047" xlink:href="#DejaVuSans-49"/>
       <use x="127.246094" xlink:href="#DejaVuSans-46"/>
       <use x="159.033203" xlink:href="#DejaVuSans-48"/>
       <use x="222.65625" xlink:href="#DejaVuSans-54"/>
       <use x="286.279297" xlink:href="#DejaVuSans-46"/>
       <use x="318.066406" xlink:href="#DejaVuSans-49"/>
       <use x="381.689453" xlink:href="#DejaVuSans-56"/>
       <use x="445.3125" xlink:href="#DejaVuSans-32"/>
       <use x="477.099609" xlink:href="#DejaVuSans-49"/>
       <use x="540.722656" xlink:href="#DejaVuSans-54"/>
       <use x="604.345703" xlink:href="#DejaVuSans-58"/>
       <use x="638.037109" xlink:href="#DejaVuSans-52"/>
       <use x="701.660156" xlink:href="#DejaVuSans-48"/>
      </g>
     </g>
    </g>
    <g id="xtick_4">
     <g id="line2d_7">
      <path clip-path="url(#p04fdf0580a)" d="M 157.055299 583.92 
L 157.055299 84.96 
" style="fill:none;stroke:#b0b0b0;stroke-linecap:square;stroke-width:0.8;"/>
     </g>
     <g id="line2d_8">
      <g>
       <use style="stroke:#000000;stroke-width:0.8;" x="157.055299" xlink:href="#mdb7bfcd71e" y="583.92"/>
      </g>
     </g>
     <g id="text_4">
      <!-- 02.06.18 01:01 -->
      <g transform="translate(159.814674 667.448125)rotate(-90)scale(0.1 -0.1)">
       <use xlink:href="#DejaVuSans-48"/>
       <use x="63.623047" xlink:href="#DejaVuSans-50"/>
       <use x="127.246094" xlink:href="#DejaVuSans-46"/>
       <use x="159.033203" xlink:href="#DejaVuSans-48"/>
       <use x="222.65625" xlink:href="#DejaVuSans-54"/>
       <use x="286.279297" xlink:href="#DejaVuSans-46"/>
       <use x="318.066406" xlink:href="#DejaVuSans-49"/>
       <use x="381.689453" xlink:href="#DejaVuSans-56"/>
       <use x="445.3125" xlink:href="#DejaVuSans-32"/>
       <use x="477.099609" xlink:href="#DejaVuSans-48"/>
       <use x="540.722656" xlink:href="#DejaVuSans-49"/>
       <use x="604.345703" xlink:href="#DejaVuSans-58"/>
       <use x="638.037109" xlink:href="#DejaVuSans-48"/>
       <use x="701.660156" xlink:href="#DejaVuSans-49"/>
      </g>
     </g>
    </g>
    <g id="xtick_5">
     <g id="line2d_9">
      <path clip-path="url(#p04fdf0580a)" d="M 195.87269 583.92 
L 195.87269 84.96 
" style="fill:none;stroke:#b0b0b0;stroke-linecap:square;stroke-width:0.8;"/>
     </g>
     <g id="line2d_10">
      <g>
       <use style="stroke:#000000;stroke-width:0.8;" x="195.87269" xlink:href="#mdb7bfcd71e" y="583.92"/>
      </g>
     </g>
     <g id="text_5">
      <!-- 02.06.18 09:21 -->
      <defs>
       <path d="M 10.984375 1.515625 
L 10.984375 10.5 
Q 14.703125 8.734375 18.5 7.8125 
Q 22.3125 6.890625 25.984375 6.890625 
Q 35.75 6.890625 40.890625 13.453125 
Q 46.046875 20.015625 46.78125 33.40625 
Q 43.953125 29.203125 39.59375 26.953125 
Q 35.25 24.703125 29.984375 24.703125 
Q 19.046875 24.703125 12.671875 31.3125 
Q 6.296875 37.9375 6.296875 49.421875 
Q 6.296875 60.640625 12.9375 67.421875 
Q 19.578125 74.21875 30.609375 74.21875 
Q 43.265625 74.21875 49.921875 64.515625 
Q 56.59375 54.828125 56.59375 36.375 
Q 56.59375 19.140625 48.40625 8.859375 
Q 40.234375 -1.421875 26.421875 -1.421875 
Q 22.703125 -1.421875 18.890625 -0.6875 
Q 15.09375 0.046875 10.984375 1.515625 
z
M 30.609375 32.421875 
Q 37.25 32.421875 41.125 36.953125 
Q 45.015625 41.5 45.015625 49.421875 
Q 45.015625 57.28125 41.125 61.84375 
Q 37.25 66.40625 30.609375 66.40625 
Q 23.96875 66.40625 20.09375 61.84375 
Q 16.21875 57.28125 16.21875 49.421875 
Q 16.21875 41.5 20.09375 36.953125 
Q 23.96875 32.421875 30.609375 32.421875 
z
" id="DejaVuSans-57"/>
      </defs>
      <g transform="translate(198.632065 667.448125)rotate(-90)scale(0.1 -0.1)">
       <use xlink:href="#DejaVuSans-48"/>
       <use x="63.623047" xlink:href="#DejaVuSans-50"/>
       <use x="127.246094" xlink:href="#DejaVuSans-46"/>
       <use x="159.033203" xlink:href="#DejaVuSans-48"/>
       <use x="222.65625" xlink:href="#DejaVuSans-54"/>
       <use x="286.279297" xlink:href="#DejaVuSans-46"/>
       <use x="318.066406" xlink:href="#DejaVuSans-49"/>
       <use x="381.689453" xlink:href="#DejaVuSans-56"/>
       <use x="445.3125" xlink:href="#DejaVuSans-32"/>
       <use x="477.099609" xlink:href="#DejaVuSans-48"/>
       <use x="540.722656" xlink:href="#DejaVuSans-57"/>
       <use x="604.345703" xlink:href="#DejaVuSans-58"/>
       <use x="638.037109" xlink:href="#DejaVuSans-50"/>
       <use x="701.660156" xlink:href="#DejaVuSans-49"/>
      </g>
     </g>
    </g>
    <g id="xtick_6">
     <g id="line2d_11">
      <path clip-path="url(#p04fdf0580a)" d="M 234.690082 583.92 
L 234.690082 84.96 
" style="fill:none;stroke:#b0b0b0;stroke-linecap:square;stroke-width:0.8;"/>
     </g>
     <g id="line2d_12">
      <g>
       <use style="stroke:#000000;stroke-width:0.8;" x="234.690082" xlink:href="#mdb7bfcd71e" y="583.92"/>
      </g>
     </g>
     <g id="text_6">
      <!-- 02.06.18 17:42 -->
      <defs>
       <path d="M 8.203125 72.90625 
L 55.078125 72.90625 
L 55.078125 68.703125 
L 28.609375 0 
L 18.3125 0 
L 43.21875 64.59375 
L 8.203125 64.59375 
z
" id="DejaVuSans-55"/>
      </defs>
      <g transform="translate(237.449457 667.448125)rotate(-90)scale(0.1 -0.1)">
       <use xlink:href="#DejaVuSans-48"/>
       <use x="63.623047" xlink:href="#DejaVuSans-50"/>
       <use x="127.246094" xlink:href="#DejaVuSans-46"/>
       <use x="159.033203" xlink:href="#DejaVuSans-48"/>
       <use x="222.65625" xlink:href="#DejaVuSans-54"/>
       <use x="286.279297" xlink:href="#DejaVuSans-46"/>
       <use x="318.066406" xlink:href="#DejaVuSans-49"/>
       <use x="381.689453" xlink:href="#DejaVuSans-56"/>
       <use x="445.3125" xlink:href="#DejaVuSans-32"/>
       <use x="477.099609" xlink:href="#DejaVuSans-49"/>
       <use x="540.722656" xlink:href="#DejaVuSans-55"/>
       <use x="604.345703" xlink:href="#DejaVuSans-58"/>
       <use x="638.037109" xlink:href="#DejaVuSans-52"/>
       <use x="701.660156" xlink:href="#DejaVuSans-50"/>
      </g>
     </g>
    </g>
    <g id="xtick_7">
     <g id="line2d_13">
      <path clip-path="url(#p04fdf0580a)" d="M 273.507473 583.92 
L 273.507473 84.96 
" style="fill:none;stroke:#b0b0b0;stroke-linecap:square;stroke-width:0.8;"/>
     </g>
     <g id="line2d_14">
      <g>
       <use style="stroke:#000000;stroke-width:0.8;" x="273.507473" xlink:href="#mdb7bfcd71e" y="583.92"/>
      </g>
     </g>
     <g id="text_7">
      <!-- 03.06.18 02:02 -->
      <defs>
       <path d="M 40.578125 39.3125 
Q 47.65625 37.796875 51.625 33 
Q 55.609375 28.21875 55.609375 21.1875 
Q 55.609375 10.40625 48.1875 4.484375 
Q 40.765625 -1.421875 27.09375 -1.421875 
Q 22.515625 -1.421875 17.65625 -0.515625 
Q 12.796875 0.390625 7.625 2.203125 
L 7.625 11.71875 
Q 11.71875 9.328125 16.59375 8.109375 
Q 21.484375 6.890625 26.8125 6.890625 
Q 36.078125 6.890625 40.9375 10.546875 
Q 45.796875 14.203125 45.796875 21.1875 
Q 45.796875 27.640625 41.28125 31.265625 
Q 36.765625 34.90625 28.71875 34.90625 
L 20.21875 34.90625 
L 20.21875 43.015625 
L 29.109375 43.015625 
Q 36.375 43.015625 40.234375 45.921875 
Q 44.09375 48.828125 44.09375 54.296875 
Q 44.09375 59.90625 40.109375 62.90625 
Q 36.140625 65.921875 28.71875 65.921875 
Q 24.65625 65.921875 20.015625 65.03125 
Q 15.375 64.15625 9.8125 62.3125 
L 9.8125 71.09375 
Q 15.4375 72.65625 20.34375 73.4375 
Q 25.25 74.21875 29.59375 74.21875 
Q 40.828125 74.21875 47.359375 69.109375 
Q 53.90625 64.015625 53.90625 55.328125 
Q 53.90625 49.265625 50.4375 45.09375 
Q 46.96875 40.921875 40.578125 39.3125 
z
" id="DejaVuSans-51"/>
      </defs>
      <g transform="translate(276.266848 667.448125)rotate(-90)scale(0.1 -0.1)">
       <use xlink:href="#DejaVuSans-48"/>
       <use x="63.623047" xlink:href="#DejaVuSans-51"/>
       <use x="127.246094" xlink:href="#DejaVuSans-46"/>
       <use x="159.033203" xlink:href="#DejaVuSans-48"/>
       <use x="222.65625" xlink:href="#DejaVuSans-54"/>
       <use x="286.279297" xlink:href="#DejaVuSans-46"/>
       <use x="318.066406" xlink:href="#DejaVuSans-49"/>
       <use x="381.689453" xlink:href="#DejaVuSans-56"/>
       <use x="445.3125" xlink:href="#DejaVuSans-32"/>
       <use x="477.099609" xlink:href="#DejaVuSans-48"/>
       <use x="540.722656" xlink:href="#DejaVuSans-50"/>
       <use x="604.345703" xlink:href="#DejaVuSans-58"/>
       <use x="638.037109" xlink:href="#DejaVuSans-48"/>
       <use x="701.660156" xlink:href="#DejaVuSans-50"/>
      </g>
     </g>
    </g>
    <g id="xtick_8">
     <g id="line2d_15">
      <path clip-path="url(#p04fdf0580a)" d="M 312.324864 583.92 
L 312.324864 84.96 
" style="fill:none;stroke:#b0b0b0;stroke-linecap:square;stroke-width:0.8;"/>
     </g>
     <g id="line2d_16">
      <g>
       <use style="stroke:#000000;stroke-width:0.8;" x="312.324864" xlink:href="#mdb7bfcd71e" y="583.92"/>
      </g>
     </g>
     <g id="text_8">
      <!-- 03.06.18 10:23 -->
      <g transform="translate(315.084239 667.448125)rotate(-90)scale(0.1 -0.1)">
       <use xlink:href="#DejaVuSans-48"/>
       <use x="63.623047" xlink:href="#DejaVuSans-51"/>
       <use x="127.246094" xlink:href="#DejaVuSans-46"/>
       <use x="159.033203" xlink:href="#DejaVuSans-48"/>
       <use x="222.65625" xlink:href="#DejaVuSans-54"/>
       <use x="286.279297" xlink:href="#DejaVuSans-46"/>
       <use x="318.066406" xlink:href="#DejaVuSans-49"/>
       <use x="381.689453" xlink:href="#DejaVuSans-56"/>
       <use x="445.3125" xlink:href="#DejaVuSans-32"/>
       <use x="477.099609" xlink:href="#DejaVuSans-49"/>
       <use x="540.722656" xlink:href="#DejaVuSans-48"/>
       <use x="604.345703" xlink:href="#DejaVuSans-58"/>
       <use x="638.037109" xlink:href="#DejaVuSans-50"/>
       <use x="701.660156" xlink:href="#DejaVuSans-51"/>
      </g>
     </g>
    </g>
    <g id="xtick_9">
     <g id="line2d_17">
      <path clip-path="url(#p04fdf0580a)" d="M 351.142255 583.92 
L 351.142255 84.96 
" style="fill:none;stroke:#b0b0b0;stroke-linecap:square;stroke-width:0.8;"/>
     </g>
     <g id="line2d_18">
      <g>
       <use style="stroke:#000000;stroke-width:0.8;" x="351.142255" xlink:href="#mdb7bfcd71e" y="583.92"/>
      </g>
     </g>
     <g id="text_9">
      <!-- 03.06.18 18:43 -->
      <g transform="translate(353.90163 667.448125)rotate(-90)scale(0.1 -0.1)">
       <use xlink:href="#DejaVuSans-48"/>
       <use x="63.623047" xlink:href="#DejaVuSans-51"/>
       <use x="127.246094" xlink:href="#DejaVuSans-46"/>
       <use x="159.033203" xlink:href="#DejaVuSans-48"/>
       <use x="222.65625" xlink:href="#DejaVuSans-54"/>
       <use x="286.279297" xlink:href="#DejaVuSans-46"/>
       <use x="318.066406" xlink:href="#DejaVuSans-49"/>
       <use x="381.689453" xlink:href="#DejaVuSans-56"/>
       <use x="445.3125" xlink:href="#DejaVuSans-32"/>
       <use x="477.099609" xlink:href="#DejaVuSans-49"/>
       <use x="540.722656" xlink:href="#DejaVuSans-56"/>
       <use x="604.345703" xlink:href="#DejaVuSans-58"/>
       <use x="638.037109" xlink:href="#DejaVuSans-52"/>
       <use x="701.660156" xlink:href="#DejaVuSans-51"/>
      </g>
     </g>
    </g>
    <g id="xtick_10">
     <g id="line2d_19">
      <path clip-path="url(#p04fdf0580a)" d="M 389.959647 583.92 
L 389.959647 84.96 
" style="fill:none;stroke:#b0b0b0;stroke-linecap:square;stroke-width:0.8;"/>
     </g>
     <g id="line2d_20">
      <g>
       <use style="stroke:#000000;stroke-width:0.8;" x="389.959647" xlink:href="#mdb7bfcd71e" y="583.92"/>
      </g>
     </g>
     <g id="text_10">
      <!-- 04.06.18 03:03 -->
      <g transform="translate(392.719022 667.448125)rotate(-90)scale(0.1 -0.1)">
       <use xlink:href="#DejaVuSans-48"/>
       <use x="63.623047" xlink:href="#DejaVuSans-52"/>
       <use x="127.246094" xlink:href="#DejaVuSans-46"/>
       <use x="159.033203" xlink:href="#DejaVuSans-48"/>
       <use x="222.65625" xlink:href="#DejaVuSans-54"/>
       <use x="286.279297" xlink:href="#DejaVuSans-46"/>
       <use x="318.066406" xlink:href="#DejaVuSans-49"/>
       <use x="381.689453" xlink:href="#DejaVuSans-56"/>
       <use x="445.3125" xlink:href="#DejaVuSans-32"/>
       <use x="477.099609" xlink:href="#DejaVuSans-48"/>
       <use x="540.722656" xlink:href="#DejaVuSans-51"/>
       <use x="604.345703" xlink:href="#DejaVuSans-58"/>
       <use x="638.037109" xlink:href="#DejaVuSans-48"/>
       <use x="701.660156" xlink:href="#DejaVuSans-51"/>
      </g>
     </g>
    </g>
    <g id="xtick_11">
     <g id="line2d_21">
      <path clip-path="url(#p04fdf0580a)" d="M 428.777038 583.92 
L 428.777038 84.96 
" style="fill:none;stroke:#b0b0b0;stroke-linecap:square;stroke-width:0.8;"/>
     </g>
     <g id="line2d_22">
      <g>
       <use style="stroke:#000000;stroke-width:0.8;" x="428.777038" xlink:href="#mdb7bfcd71e" y="583.92"/>
      </g>
     </g>
     <g id="text_11">
      <!-- 04.06.18 11:24 -->
      <g transform="translate(431.536413 667.448125)rotate(-90)scale(0.1 -0.1)">
       <use xlink:href="#DejaVuSans-48"/>
       <use x="63.623047" xlink:href="#DejaVuSans-52"/>
       <use x="127.246094" xlink:href="#DejaVuSans-46"/>
       <use x="159.033203" xlink:href="#DejaVuSans-48"/>
       <use x="222.65625" xlink:href="#DejaVuSans-54"/>
       <use x="286.279297" xlink:href="#DejaVuSans-46"/>
       <use x="318.066406" xlink:href="#DejaVuSans-49"/>
       <use x="381.689453" xlink:href="#DejaVuSans-56"/>
       <use x="445.3125" xlink:href="#DejaVuSans-32"/>
       <use x="477.099609" xlink:href="#DejaVuSans-49"/>
       <use x="540.722656" xlink:href="#DejaVuSans-49"/>
       <use x="604.345703" xlink:href="#DejaVuSans-58"/>
       <use x="638.037109" xlink:href="#DejaVuSans-50"/>
       <use x="701.660156" xlink:href="#DejaVuSans-52"/>
      </g>
     </g>
    </g>
    <g id="xtick_12">
     <g id="line2d_23">
      <path clip-path="url(#p04fdf0580a)" d="M 467.594429 583.92 
L 467.594429 84.96 
" style="fill:none;stroke:#b0b0b0;stroke-linecap:square;stroke-width:0.8;"/>
     </g>
     <g id="line2d_24">
      <g>
       <use style="stroke:#000000;stroke-width:0.8;" x="467.594429" xlink:href="#mdb7bfcd71e" y="583.92"/>
      </g>
     </g>
     <g id="text_12">
      <!-- 04.06.18 19:44 -->
      <g transform="translate(470.353804 667.448125)rotate(-90)scale(0.1 -0.1)">
       <use xlink:href="#DejaVuSans-48"/>
       <use x="63.623047" xlink:href="#DejaVuSans-52"/>
       <use x="127.246094" xlink:href="#DejaVuSans-46"/>
       <use x="159.033203" xlink:href="#DejaVuSans-48"/>
       <use x="222.65625" xlink:href="#DejaVuSans-54"/>
       <use x="286.279297" xlink:href="#DejaVuSans-46"/>
       <use x="318.066406" xlink:href="#DejaVuSans-49"/>
       <use x="381.689453" xlink:href="#DejaVuSans-56"/>
       <use x="445.3125" xlink:href="#DejaVuSans-32"/>
       <use x="477.099609" xlink:href="#DejaVuSans-49"/>
       <use x="540.722656" xlink:href="#DejaVuSans-57"/>
       <use x="604.345703" xlink:href="#DejaVuSans-58"/>
       <use x="638.037109" xlink:href="#DejaVuSans-52"/>
       <use x="701.660156" xlink:href="#DejaVuSans-52"/>
      </g>
     </g>
    </g>
    <g id="xtick_13">
     <g id="line2d_25">
      <path clip-path="url(#p04fdf0580a)" d="M 506.411821 583.92 
L 506.411821 84.96 
" style="fill:none;stroke:#b0b0b0;stroke-linecap:square;stroke-width:0.8;"/>
     </g>
     <g id="line2d_26">
      <g>
       <use style="stroke:#000000;stroke-width:0.8;" x="506.411821" xlink:href="#mdb7bfcd71e" y="583.92"/>
      </g>
     </g>
     <g id="text_13">
      <!-- 05.06.18 04:05 -->
      <defs>
       <path d="M 10.796875 72.90625 
L 49.515625 72.90625 
L 49.515625 64.59375 
L 19.828125 64.59375 
L 19.828125 46.734375 
Q 21.96875 47.46875 24.109375 47.828125 
Q 26.265625 48.1875 28.421875 48.1875 
Q 40.625 48.1875 47.75 41.5 
Q 54.890625 34.8125 54.890625 23.390625 
Q 54.890625 11.625 47.5625 5.09375 
Q 40.234375 -1.421875 26.90625 -1.421875 
Q 22.3125 -1.421875 17.546875 -0.640625 
Q 12.796875 0.140625 7.71875 1.703125 
L 7.71875 11.625 
Q 12.109375 9.234375 16.796875 8.0625 
Q 21.484375 6.890625 26.703125 6.890625 
Q 35.15625 6.890625 40.078125 11.328125 
Q 45.015625 15.765625 45.015625 23.390625 
Q 45.015625 31 40.078125 35.4375 
Q 35.15625 39.890625 26.703125 39.890625 
Q 22.75 39.890625 18.8125 39.015625 
Q 14.890625 38.140625 10.796875 36.28125 
z
" id="DejaVuSans-53"/>
      </defs>
      <g transform="translate(509.171196 667.448125)rotate(-90)scale(0.1 -0.1)">
       <use xlink:href="#DejaVuSans-48"/>
       <use x="63.623047" xlink:href="#DejaVuSans-53"/>
       <use x="127.246094" xlink:href="#DejaVuSans-46"/>
       <use x="159.033203" xlink:href="#DejaVuSans-48"/>
       <use x="222.65625" xlink:href="#DejaVuSans-54"/>
       <use x="286.279297" xlink:href="#DejaVuSans-46"/>
       <use x="318.066406" xlink:href="#DejaVuSans-49"/>
       <use x="381.689453" xlink:href="#DejaVuSans-56"/>
       <use x="445.3125" xlink:href="#DejaVuSans-32"/>
       <use x="477.099609" xlink:href="#DejaVuSans-48"/>
       <use x="540.722656" xlink:href="#DejaVuSans-52"/>
       <use x="604.345703" xlink:href="#DejaVuSans-58"/>
       <use x="638.037109" xlink:href="#DejaVuSans-48"/>
       <use x="701.660156" xlink:href="#DejaVuSans-53"/>
      </g>
     </g>
    </g>
    <g id="xtick_14">
     <g id="line2d_27">
      <path clip-path="url(#p04fdf0580a)" d="M 545.229212 583.92 
L 545.229212 84.96 
" style="fill:none;stroke:#b0b0b0;stroke-linecap:square;stroke-width:0.8;"/>
     </g>
     <g id="line2d_28">
      <g>
       <use style="stroke:#000000;stroke-width:0.8;" x="545.229212" xlink:href="#mdb7bfcd71e" y="583.92"/>
      </g>
     </g>
     <g id="text_14">
      <!-- 05.06.18 12:25 -->
      <g transform="translate(547.988587 667.448125)rotate(-90)scale(0.1 -0.1)">
       <use xlink:href="#DejaVuSans-48"/>
       <use x="63.623047" xlink:href="#DejaVuSans-53"/>
       <use x="127.246094" xlink:href="#DejaVuSans-46"/>
       <use x="159.033203" xlink:href="#DejaVuSans-48"/>
       <use x="222.65625" xlink:href="#DejaVuSans-54"/>
       <use x="286.279297" xlink:href="#DejaVuSans-46"/>
       <use x="318.066406" xlink:href="#DejaVuSans-49"/>
       <use x="381.689453" xlink:href="#DejaVuSans-56"/>
       <use x="445.3125" xlink:href="#DejaVuSans-32"/>
       <use x="477.099609" xlink:href="#DejaVuSans-49"/>
       <use x="540.722656" xlink:href="#DejaVuSans-50"/>
       <use x="604.345703" xlink:href="#DejaVuSans-58"/>
       <use x="638.037109" xlink:href="#DejaVuSans-50"/>
       <use x="701.660156" xlink:href="#DejaVuSans-53"/>
      </g>
     </g>
    </g>
    <g id="xtick_15">
     <g id="line2d_29">
      <path clip-path="url(#p04fdf0580a)" d="M 584.046603 583.92 
L 584.046603 84.96 
" style="fill:none;stroke:#b0b0b0;stroke-linecap:square;stroke-width:0.8;"/>
     </g>
     <g id="line2d_30">
      <g>
       <use style="stroke:#000000;stroke-width:0.8;" x="584.046603" xlink:href="#mdb7bfcd71e" y="583.92"/>
      </g>
     </g>
     <g id="text_15">
      <!-- 05.06.18 20:46 -->
      <g transform="translate(586.805978 667.448125)rotate(-90)scale(0.1 -0.1)">
       <use xlink:href="#DejaVuSans-48"/>
       <use x="63.623047" xlink:href="#DejaVuSans-53"/>
       <use x="127.246094" xlink:href="#DejaVuSans-46"/>
       <use x="159.033203" xlink:href="#DejaVuSans-48"/>
       <use x="222.65625" xlink:href="#DejaVuSans-54"/>
       <use x="286.279297" xlink:href="#DejaVuSans-46"/>
       <use x="318.066406" xlink:href="#DejaVuSans-49"/>
       <use x="381.689453" xlink:href="#DejaVuSans-56"/>
       <use x="445.3125" xlink:href="#DejaVuSans-32"/>
       <use x="477.099609" xlink:href="#DejaVuSans-50"/>
       <use x="540.722656" xlink:href="#DejaVuSans-48"/>
       <use x="604.345703" xlink:href="#DejaVuSans-58"/>
       <use x="638.037109" xlink:href="#DejaVuSans-52"/>
       <use x="701.660156" xlink:href="#DejaVuSans-54"/>
      </g>
     </g>
    </g>
    <g id="xtick_16">
     <g id="line2d_31">
      <path clip-path="url(#p04fdf0580a)" d="M 622.863995 583.92 
L 622.863995 84.96 
" style="fill:none;stroke:#b0b0b0;stroke-linecap:square;stroke-width:0.8;"/>
     </g>
     <g id="line2d_32">
      <g>
       <use style="stroke:#000000;stroke-width:0.8;" x="622.863995" xlink:href="#mdb7bfcd71e" y="583.92"/>
      </g>
     </g>
     <g id="text_16">
      <!-- 06.06.18 05:06 -->
      <g transform="translate(625.62337 667.448125)rotate(-90)scale(0.1 -0.1)">
       <use xlink:href="#DejaVuSans-48"/>
       <use x="63.623047" xlink:href="#DejaVuSans-54"/>
       <use x="127.246094" xlink:href="#DejaVuSans-46"/>
       <use x="159.033203" xlink:href="#DejaVuSans-48"/>
       <use x="222.65625" xlink:href="#DejaVuSans-54"/>
       <use x="286.279297" xlink:href="#DejaVuSans-46"/>
       <use x="318.066406" xlink:href="#DejaVuSans-49"/>
       <use x="381.689453" xlink:href="#DejaVuSans-56"/>
       <use x="445.3125" xlink:href="#DejaVuSans-32"/>
       <use x="477.099609" xlink:href="#DejaVuSans-48"/>
       <use x="540.722656" xlink:href="#DejaVuSans-53"/>
       <use x="604.345703" xlink:href="#DejaVuSans-58"/>
       <use x="638.037109" xlink:href="#DejaVuSans-48"/>
       <use x="701.660156" xlink:href="#DejaVuSans-54"/>
      </g>
     </g>
    </g>
    <g id="xtick_17">
     <g id="line2d_33">
      <path clip-path="url(#p04fdf0580a)" d="M 661.681386 583.92 
L 661.681386 84.96 
" style="fill:none;stroke:#b0b0b0;stroke-linecap:square;stroke-width:0.8;"/>
     </g>
     <g id="line2d_34">
      <g>
       <use style="stroke:#000000;stroke-width:0.8;" x="661.681386" xlink:href="#mdb7bfcd71e" y="583.92"/>
      </g>
     </g>
     <g id="text_17">
      <!-- 06.06.18 13:26 -->
      <g transform="translate(664.440761 667.448125)rotate(-90)scale(0.1 -0.1)">
       <use xlink:href="#DejaVuSans-48"/>
       <use x="63.623047" xlink:href="#DejaVuSans-54"/>
       <use x="127.246094" xlink:href="#DejaVuSans-46"/>
       <use x="159.033203" xlink:href="#DejaVuSans-48"/>
       <use x="222.65625" xlink:href="#DejaVuSans-54"/>
       <use x="286.279297" xlink:href="#DejaVuSans-46"/>
       <use x="318.066406" xlink:href="#DejaVuSans-49"/>
       <use x="381.689453" xlink:href="#DejaVuSans-56"/>
       <use x="445.3125" xlink:href="#DejaVuSans-32"/>
       <use x="477.099609" xlink:href="#DejaVuSans-49"/>
       <use x="540.722656" xlink:href="#DejaVuSans-51"/>
       <use x="604.345703" xlink:href="#DejaVuSans-58"/>
       <use x="638.037109" xlink:href="#DejaVuSans-50"/>
       <use x="701.660156" xlink:href="#DejaVuSans-54"/>
      </g>
     </g>
    </g>
    <g id="xtick_18">
     <g id="line2d_35">
      <path clip-path="url(#p04fdf0580a)" d="M 700.498777 583.92 
L 700.498777 84.96 
" style="fill:none;stroke:#b0b0b0;stroke-linecap:square;stroke-width:0.8;"/>
     </g>
     <g id="line2d_36">
      <g>
       <use style="stroke:#000000;stroke-width:0.8;" x="700.498777" xlink:href="#mdb7bfcd71e" y="583.92"/>
      </g>
     </g>
     <g id="text_18">
      <!-- 06.06.18 21:47 -->
      <g transform="translate(703.258152 667.448125)rotate(-90)scale(0.1 -0.1)">
       <use xlink:href="#DejaVuSans-48"/>
       <use x="63.623047" xlink:href="#DejaVuSans-54"/>
       <use x="127.246094" xlink:href="#DejaVuSans-46"/>
       <use x="159.033203" xlink:href="#DejaVuSans-48"/>
       <use x="222.65625" xlink:href="#DejaVuSans-54"/>
       <use x="286.279297" xlink:href="#DejaVuSans-46"/>
       <use x="318.066406" xlink:href="#DejaVuSans-49"/>
       <use x="381.689453" xlink:href="#DejaVuSans-56"/>
       <use x="445.3125" xlink:href="#DejaVuSans-32"/>
       <use x="477.099609" xlink:href="#DejaVuSans-50"/>
       <use x="540.722656" xlink:href="#DejaVuSans-49"/>
       <use x="604.345703" xlink:href="#DejaVuSans-58"/>
       <use x="638.037109" xlink:href="#DejaVuSans-52"/>
       <use x="701.660156" xlink:href="#DejaVuSans-55"/>
      </g>
     </g>
    </g>
    <g id="xtick_19">
     <g id="line2d_37">
      <path clip-path="url(#p04fdf0580a)" d="M 739.316168 583.92 
L 739.316168 84.96 
" style="fill:none;stroke:#b0b0b0;stroke-linecap:square;stroke-width:0.8;"/>
     </g>
     <g id="line2d_38">
      <g>
       <use style="stroke:#000000;stroke-width:0.8;" x="739.316168" xlink:href="#mdb7bfcd71e" y="583.92"/>
      </g>
     </g>
     <g id="text_19">
      <!-- 07.06.18 06:07 -->
      <g transform="translate(742.075543 667.448125)rotate(-90)scale(0.1 -0.1)">
       <use xlink:href="#DejaVuSans-48"/>
       <use x="63.623047" xlink:href="#DejaVuSans-55"/>
       <use x="127.246094" xlink:href="#DejaVuSans-46"/>
       <use x="159.033203" xlink:href="#DejaVuSans-48"/>
       <use x="222.65625" xlink:href="#DejaVuSans-54"/>
       <use x="286.279297" xlink:href="#DejaVuSans-46"/>
       <use x="318.066406" xlink:href="#DejaVuSans-49"/>
       <use x="381.689453" xlink:href="#DejaVuSans-56"/>
       <use x="445.3125" xlink:href="#DejaVuSans-32"/>
       <use x="477.099609" xlink:href="#DejaVuSans-48"/>
       <use x="540.722656" xlink:href="#DejaVuSans-54"/>
       <use x="604.345703" xlink:href="#DejaVuSans-58"/>
       <use x="638.037109" xlink:href="#DejaVuSans-48"/>
       <use x="701.660156" xlink:href="#DejaVuSans-55"/>
      </g>
     </g>
    </g>
    <g id="xtick_20">
     <g id="line2d_39">
      <path clip-path="url(#p04fdf0580a)" d="M 778.13356 583.92 
L 778.13356 84.96 
" style="fill:none;stroke:#b0b0b0;stroke-linecap:square;stroke-width:0.8;"/>
     </g>
     <g id="line2d_40">
      <g>
       <use style="stroke:#000000;stroke-width:0.8;" x="778.13356" xlink:href="#mdb7bfcd71e" y="583.92"/>
      </g>
     </g>
     <g id="text_20">
      <!-- 07.06.18 14:28 -->
      <g transform="translate(780.892935 667.448125)rotate(-90)scale(0.1 -0.1)">
       <use xlink:href="#DejaVuSans-48"/>
       <use x="63.623047" xlink:href="#DejaVuSans-55"/>
       <use x="127.246094" xlink:href="#DejaVuSans-46"/>
       <use x="159.033203" xlink:href="#DejaVuSans-48"/>
       <use x="222.65625" xlink:href="#DejaVuSans-54"/>
       <use x="286.279297" xlink:href="#DejaVuSans-46"/>
       <use x="318.066406" xlink:href="#DejaVuSans-49"/>
       <use x="381.689453" xlink:href="#DejaVuSans-56"/>
       <use x="445.3125" xlink:href="#DejaVuSans-32"/>
       <use x="477.099609" xlink:href="#DejaVuSans-49"/>
       <use x="540.722656" xlink:href="#DejaVuSans-52"/>
       <use x="604.345703" xlink:href="#DejaVuSans-58"/>
       <use x="638.037109" xlink:href="#DejaVuSans-50"/>
       <use x="701.660156" xlink:href="#DejaVuSans-56"/>
      </g>
     </g>
    </g>
    <g id="xtick_21">
     <g id="line2d_41">
      <path clip-path="url(#p04fdf0580a)" d="M 816.950951 583.92 
L 816.950951 84.96 
" style="fill:none;stroke:#b0b0b0;stroke-linecap:square;stroke-width:0.8;"/>
     </g>
     <g id="line2d_42">
      <g>
       <use style="stroke:#000000;stroke-width:0.8;" x="816.950951" xlink:href="#mdb7bfcd71e" y="583.92"/>
      </g>
     </g>
     <g id="text_21">
      <!-- 07.06.18 22:48 -->
      <g transform="translate(819.710326 667.448125)rotate(-90)scale(0.1 -0.1)">
       <use xlink:href="#DejaVuSans-48"/>
       <use x="63.623047" xlink:href="#DejaVuSans-55"/>
       <use x="127.246094" xlink:href="#DejaVuSans-46"/>
       <use x="159.033203" xlink:href="#DejaVuSans-48"/>
       <use x="222.65625" xlink:href="#DejaVuSans-54"/>
       <use x="286.279297" xlink:href="#DejaVuSans-46"/>
       <use x="318.066406" xlink:href="#DejaVuSans-49"/>
       <use x="381.689453" xlink:href="#DejaVuSans-56"/>
       <use x="445.3125" xlink:href="#DejaVuSans-32"/>
       <use x="477.099609" xlink:href="#DejaVuSans-50"/>
       <use x="540.722656" xlink:href="#DejaVuSans-50"/>
       <use x="604.345703" xlink:href="#DejaVuSans-58"/>
       <use x="638.037109" xlink:href="#DejaVuSans-52"/>
       <use x="701.660156" xlink:href="#DejaVuSans-56"/>
      </g>
     </g>
    </g>
    <g id="xtick_22">
     <g id="line2d_43">
      <path clip-path="url(#p04fdf0580a)" d="M 855.768342 583.92 
L 855.768342 84.96 
" style="fill:none;stroke:#b0b0b0;stroke-linecap:square;stroke-width:0.8;"/>
     </g>
     <g id="line2d_44">
      <g>
       <use style="stroke:#000000;stroke-width:0.8;" x="855.768342" xlink:href="#mdb7bfcd71e" y="583.92"/>
      </g>
     </g>
     <g id="text_22">
      <!-- 08.06.18 07:09 -->
      <g transform="translate(858.527717 667.448125)rotate(-90)scale(0.1 -0.1)">
       <use xlink:href="#DejaVuSans-48"/>
       <use x="63.623047" xlink:href="#DejaVuSans-56"/>
       <use x="127.246094" xlink:href="#DejaVuSans-46"/>
       <use x="159.033203" xlink:href="#DejaVuSans-48"/>
       <use x="222.65625" xlink:href="#DejaVuSans-54"/>
       <use x="286.279297" xlink:href="#DejaVuSans-46"/>
       <use x="318.066406" xlink:href="#DejaVuSans-49"/>
       <use x="381.689453" xlink:href="#DejaVuSans-56"/>
       <use x="445.3125" xlink:href="#DejaVuSans-32"/>
       <use x="477.099609" xlink:href="#DejaVuSans-48"/>
       <use x="540.722656" xlink:href="#DejaVuSans-55"/>
       <use x="604.345703" xlink:href="#DejaVuSans-58"/>
       <use x="638.037109" xlink:href="#DejaVuSans-48"/>
       <use x="701.660156" xlink:href="#DejaVuSans-57"/>
      </g>
     </g>
    </g>
    <g id="xtick_23">
     <g id="line2d_45">
      <path clip-path="url(#p04fdf0580a)" d="M 894.585734 583.92 
L 894.585734 84.96 
" style="fill:none;stroke:#b0b0b0;stroke-linecap:square;stroke-width:0.8;"/>
     </g>
     <g id="line2d_46">
      <g>
       <use style="stroke:#000000;stroke-width:0.8;" x="894.585734" xlink:href="#mdb7bfcd71e" y="583.92"/>
      </g>
     </g>
     <g id="text_23">
      <!-- 08.06.18 15:29 -->
      <g transform="translate(897.345109 667.448125)rotate(-90)scale(0.1 -0.1)">
       <use xlink:href="#DejaVuSans-48"/>
       <use x="63.623047" xlink:href="#DejaVuSans-56"/>
       <use x="127.246094" xlink:href="#DejaVuSans-46"/>
       <use x="159.033203" xlink:href="#DejaVuSans-48"/>
       <use x="222.65625" xlink:href="#DejaVuSans-54"/>
       <use x="286.279297" xlink:href="#DejaVuSans-46"/>
       <use x="318.066406" xlink:href="#DejaVuSans-49"/>
       <use x="381.689453" xlink:href="#DejaVuSans-56"/>
       <use x="445.3125" xlink:href="#DejaVuSans-32"/>
       <use x="477.099609" xlink:href="#DejaVuSans-49"/>
       <use x="540.722656" xlink:href="#DejaVuSans-53"/>
       <use x="604.345703" xlink:href="#DejaVuSans-58"/>
       <use x="638.037109" xlink:href="#DejaVuSans-50"/>
       <use x="701.660156" xlink:href="#DejaVuSans-57"/>
      </g>
     </g>
    </g>
    <g id="xtick_24">
     <g id="line2d_47">
      <path clip-path="url(#p04fdf0580a)" d="M 933.403125 583.92 
L 933.403125 84.96 
" style="fill:none;stroke:#b0b0b0;stroke-linecap:square;stroke-width:0.8;"/>
     </g>
     <g id="line2d_48">
      <g>
       <use style="stroke:#000000;stroke-width:0.8;" x="933.403125" xlink:href="#mdb7bfcd71e" y="583.92"/>
      </g>
     </g>
     <g id="text_24">
      <!-- 08.06.18 23:50 -->
      <g transform="translate(936.1625 667.448125)rotate(-90)scale(0.1 -0.1)">
       <use xlink:href="#DejaVuSans-48"/>
       <use x="63.623047" xlink:href="#DejaVuSans-56"/>
       <use x="127.246094" xlink:href="#DejaVuSans-46"/>
       <use x="159.033203" xlink:href="#DejaVuSans-48"/>
       <use x="222.65625" xlink:href="#DejaVuSans-54"/>
       <use x="286.279297" xlink:href="#DejaVuSans-46"/>
       <use x="318.066406" xlink:href="#DejaVuSans-49"/>
       <use x="381.689453" xlink:href="#DejaVuSans-56"/>
       <use x="445.3125" xlink:href="#DejaVuSans-32"/>
       <use x="477.099609" xlink:href="#DejaVuSans-50"/>
       <use x="540.722656" xlink:href="#DejaVuSans-51"/>
       <use x="604.345703" xlink:href="#DejaVuSans-58"/>
       <use x="638.037109" xlink:href="#DejaVuSans-53"/>
       <use x="701.660156" xlink:href="#DejaVuSans-48"/>
      </g>
     </g>
    </g>
   </g>
   <g id="matplotlib.axis_2">
    <g id="ytick_1">
     <g id="line2d_49">
      <defs>
       <path d="M 0 0 
L -3.5 0 
" id="mc4c6c7e10a" style="stroke:#000000;stroke-width:0.8;"/>
      </defs>
      <g>
       <use style="stroke:#000000;stroke-width:0.8;" x="40.603125" xlink:href="#mc4c6c7e10a" y="531.737561"/>
      </g>
     </g>
     <g id="text_25">
      <!-- 12 -->
      <g transform="translate(20.878125 535.53678)scale(0.1 -0.1)">
       <use xlink:href="#DejaVuSans-49"/>
       <use x="63.623047" xlink:href="#DejaVuSans-50"/>
      </g>
     </g>
    </g>
    <g id="ytick_2">
     <g id="line2d_50">
      <g>
       <use style="stroke:#000000;stroke-width:0.8;" x="40.603125" xlink:href="#mc4c6c7e10a" y="457.981463"/>
      </g>
     </g>
     <g id="text_26">
      <!-- 14 -->
      <g transform="translate(20.878125 461.780682)scale(0.1 -0.1)">
       <use xlink:href="#DejaVuSans-49"/>
       <use x="63.623047" xlink:href="#DejaVuSans-52"/>
      </g>
     </g>
    </g>
    <g id="ytick_3">
     <g id="line2d_51">
      <g>
       <use style="stroke:#000000;stroke-width:0.8;" x="40.603125" xlink:href="#mc4c6c7e10a" y="384.225366"/>
      </g>
     </g>
     <g id="text_27">
      <!-- 16 -->
      <g transform="translate(20.878125 388.024585)scale(0.1 -0.1)">
       <use xlink:href="#DejaVuSans-49"/>
       <use x="63.623047" xlink:href="#DejaVuSans-54"/>
      </g>
     </g>
    </g>
    <g id="ytick_4">
     <g id="line2d_52">
      <g>
       <use style="stroke:#000000;stroke-width:0.8;" x="40.603125" xlink:href="#mc4c6c7e10a" y="310.469268"/>
      </g>
     </g>
     <g id="text_28">
      <!-- 18 -->
      <g transform="translate(20.878125 314.268487)scale(0.1 -0.1)">
       <use xlink:href="#DejaVuSans-49"/>
       <use x="63.623047" xlink:href="#DejaVuSans-56"/>
      </g>
     </g>
    </g>
    <g id="ytick_5">
     <g id="line2d_53">
      <g>
       <use style="stroke:#000000;stroke-width:0.8;" x="40.603125" xlink:href="#mc4c6c7e10a" y="236.713171"/>
      </g>
     </g>
     <g id="text_29">
      <!-- 20 -->
      <g transform="translate(20.878125 240.512389)scale(0.1 -0.1)">
       <use xlink:href="#DejaVuSans-50"/>
       <use x="63.623047" xlink:href="#DejaVuSans-48"/>
      </g>
     </g>
    </g>
    <g id="ytick_6">
     <g id="line2d_54">
      <g>
       <use style="stroke:#000000;stroke-width:0.8;" x="40.603125" xlink:href="#mc4c6c7e10a" y="162.957073"/>
      </g>
     </g>
     <g id="text_30">
      <!-- 22 -->
      <g transform="translate(20.878125 166.756292)scale(0.1 -0.1)">
       <use xlink:href="#DejaVuSans-50"/>
       <use x="63.623047" xlink:href="#DejaVuSans-50"/>
      </g>
     </g>
    </g>
    <g id="ytick_7">
     <g id="line2d_55">
      <g>
       <use style="stroke:#000000;stroke-width:0.8;" x="40.603125" xlink:href="#mc4c6c7e10a" y="89.200976"/>
      </g>
     </g>
     <g id="text_31">
      <!-- 24 -->
      <g transform="translate(20.878125 93.000194)scale(0.1 -0.1)">
       <use xlink:href="#DejaVuSans-50"/>
       <use x="63.623047" xlink:href="#DejaVuSans-52"/>
      </g>
     </g>
    </g>
    <g id="text_32">
     <!-- Temperatur 1 [C] -->
     <defs>
      <path d="M -0.296875 72.90625 
L 61.375 72.90625 
L 61.375 64.59375 
L 35.5 64.59375 
L 35.5 0 
L 25.59375 0 
L 25.59375 64.59375 
L -0.296875 64.59375 
z
" id="DejaVuSans-84"/>
      <path d="M 56.203125 29.59375 
L 56.203125 25.203125 
L 14.890625 25.203125 
Q 15.484375 15.921875 20.484375 11.0625 
Q 25.484375 6.203125 34.421875 6.203125 
Q 39.59375 6.203125 44.453125 7.46875 
Q 49.3125 8.734375 54.109375 11.28125 
L 54.109375 2.78125 
Q 49.265625 0.734375 44.1875 -0.34375 
Q 39.109375 -1.421875 33.890625 -1.421875 
Q 20.796875 -1.421875 13.15625 6.1875 
Q 5.515625 13.8125 5.515625 26.8125 
Q 5.515625 40.234375 12.765625 48.109375 
Q 20.015625 56 32.328125 56 
Q 43.359375 56 49.78125 48.890625 
Q 56.203125 41.796875 56.203125 29.59375 
z
M 47.21875 32.234375 
Q 47.125 39.59375 43.09375 43.984375 
Q 39.0625 48.390625 32.421875 48.390625 
Q 24.90625 48.390625 20.390625 44.140625 
Q 15.875 39.890625 15.1875 32.171875 
z
" id="DejaVuSans-101"/>
      <path d="M 52 44.1875 
Q 55.375 50.25 60.0625 53.125 
Q 64.75 56 71.09375 56 
Q 79.640625 56 84.28125 50.015625 
Q 88.921875 44.046875 88.921875 33.015625 
L 88.921875 0 
L 79.890625 0 
L 79.890625 32.71875 
Q 79.890625 40.578125 77.09375 44.375 
Q 74.3125 48.1875 68.609375 48.1875 
Q 61.625 48.1875 57.5625 43.546875 
Q 53.515625 38.921875 53.515625 30.90625 
L 53.515625 0 
L 44.484375 0 
L 44.484375 32.71875 
Q 44.484375 40.625 41.703125 44.40625 
Q 38.921875 48.1875 33.109375 48.1875 
Q 26.21875 48.1875 22.15625 43.53125 
Q 18.109375 38.875 18.109375 30.90625 
L 18.109375 0 
L 9.078125 0 
L 9.078125 54.6875 
L 18.109375 54.6875 
L 18.109375 46.1875 
Q 21.1875 51.21875 25.484375 53.609375 
Q 29.78125 56 35.6875 56 
Q 41.65625 56 45.828125 52.96875 
Q 50 49.953125 52 44.1875 
z
" id="DejaVuSans-109"/>
      <path d="M 18.109375 8.203125 
L 18.109375 -20.796875 
L 9.078125 -20.796875 
L 9.078125 54.6875 
L 18.109375 54.6875 
L 18.109375 46.390625 
Q 20.953125 51.265625 25.265625 53.625 
Q 29.59375 56 35.59375 56 
Q 45.5625 56 51.78125 48.09375 
Q 58.015625 40.1875 58.015625 27.296875 
Q 58.015625 14.40625 51.78125 6.484375 
Q 45.5625 -1.421875 35.59375 -1.421875 
Q 29.59375 -1.421875 25.265625 0.953125 
Q 20.953125 3.328125 18.109375 8.203125 
z
M 48.6875 27.296875 
Q 48.6875 37.203125 44.609375 42.84375 
Q 40.53125 48.484375 33.40625 48.484375 
Q 26.265625 48.484375 22.1875 42.84375 
Q 18.109375 37.203125 18.109375 27.296875 
Q 18.109375 17.390625 22.1875 11.75 
Q 26.265625 6.109375 33.40625 6.109375 
Q 40.53125 6.109375 44.609375 11.75 
Q 48.6875 17.390625 48.6875 27.296875 
z
" id="DejaVuSans-112"/>
      <path d="M 41.109375 46.296875 
Q 39.59375 47.171875 37.8125 47.578125 
Q 36.03125 48 33.890625 48 
Q 26.265625 48 22.1875 43.046875 
Q 18.109375 38.09375 18.109375 28.8125 
L 18.109375 0 
L 9.078125 0 
L 9.078125 54.6875 
L 18.109375 54.6875 
L 18.109375 46.1875 
Q 20.953125 51.171875 25.484375 53.578125 
Q 30.03125 56 36.53125 56 
Q 37.453125 56 38.578125 55.875 
Q 39.703125 55.765625 41.0625 55.515625 
z
" id="DejaVuSans-114"/>
      <path d="M 34.28125 27.484375 
Q 23.390625 27.484375 19.1875 25 
Q 14.984375 22.515625 14.984375 16.5 
Q 14.984375 11.71875 18.140625 8.90625 
Q 21.296875 6.109375 26.703125 6.109375 
Q 34.1875 6.109375 38.703125 11.40625 
Q 43.21875 16.703125 43.21875 25.484375 
L 43.21875 27.484375 
z
M 52.203125 31.203125 
L 52.203125 0 
L 43.21875 0 
L 43.21875 8.296875 
Q 40.140625 3.328125 35.546875 0.953125 
Q 30.953125 -1.421875 24.3125 -1.421875 
Q 15.921875 -1.421875 10.953125 3.296875 
Q 6 8.015625 6 15.921875 
Q 6 25.140625 12.171875 29.828125 
Q 18.359375 34.515625 30.609375 34.515625 
L 43.21875 34.515625 
L 43.21875 35.40625 
Q 43.21875 41.609375 39.140625 45 
Q 35.0625 48.390625 27.6875 48.390625 
Q 23 48.390625 18.546875 47.265625 
Q 14.109375 46.140625 10.015625 43.890625 
L 10.015625 52.203125 
Q 14.9375 54.109375 19.578125 55.046875 
Q 24.21875 56 28.609375 56 
Q 40.484375 56 46.34375 49.84375 
Q 52.203125 43.703125 52.203125 31.203125 
z
" id="DejaVuSans-97"/>
      <path d="M 18.3125 70.21875 
L 18.3125 54.6875 
L 36.8125 54.6875 
L 36.8125 47.703125 
L 18.3125 47.703125 
L 18.3125 18.015625 
Q 18.3125 11.328125 20.140625 9.421875 
Q 21.96875 7.515625 27.59375 7.515625 
L 36.8125 7.515625 
L 36.8125 0 
L 27.59375 0 
Q 17.1875 0 13.234375 3.875 
Q 9.28125 7.765625 9.28125 18.015625 
L 9.28125 47.703125 
L 2.6875 47.703125 
L 2.6875 54.6875 
L 9.28125 54.6875 
L 9.28125 70.21875 
z
" id="DejaVuSans-116"/>
      <path d="M 8.5 21.578125 
L 8.5 54.6875 
L 17.484375 54.6875 
L 17.484375 21.921875 
Q 17.484375 14.15625 20.5 10.265625 
Q 23.53125 6.390625 29.59375 6.390625 
Q 36.859375 6.390625 41.078125 11.03125 
Q 45.3125 15.671875 45.3125 23.6875 
L 45.3125 54.6875 
L 54.296875 54.6875 
L 54.296875 0 
L 45.3125 0 
L 45.3125 8.40625 
Q 42.046875 3.421875 37.71875 1 
Q 33.40625 -1.421875 27.6875 -1.421875 
Q 18.265625 -1.421875 13.375 4.4375 
Q 8.5 10.296875 8.5 21.578125 
z
M 31.109375 56 
z
" id="DejaVuSans-117"/>
      <path d="M 8.59375 75.984375 
L 29.296875 75.984375 
L 29.296875 69 
L 17.578125 69 
L 17.578125 -6.203125 
L 29.296875 -6.203125 
L 29.296875 -13.1875 
L 8.59375 -13.1875 
z
" id="DejaVuSans-91"/>
      <path d="M 25 67.921875 
Q 21.09375 67.921875 18.40625 65.203125 
Q 15.71875 62.5 15.71875 58.59375 
Q 15.71875 54.734375 18.40625 52.078125 
Q 21.09375 49.421875 25 49.421875 
Q 28.90625 49.421875 31.59375 52.078125 
Q 34.28125 54.734375 34.28125 58.59375 
Q 34.28125 62.453125 31.5625 65.1875 
Q 28.859375 67.921875 25 67.921875 
z
M 25 74.21875 
Q 28.125 74.21875 31 73.015625 
Q 33.890625 71.828125 35.984375 69.578125 
Q 38.234375 67.390625 39.359375 64.59375 
Q 40.484375 61.8125 40.484375 58.59375 
Q 40.484375 52.15625 35.96875 47.6875 
Q 31.453125 43.21875 24.90625 43.21875 
Q 18.3125 43.21875 13.90625 47.609375 
Q 9.515625 52 9.515625 58.59375 
Q 9.515625 65.140625 14 69.671875 
Q 18.5 74.21875 25 74.21875 
z
" id="DejaVuSans-176"/>
      <path d="M 64.40625 67.28125 
L 64.40625 56.890625 
Q 59.421875 61.53125 53.78125 63.8125 
Q 48.140625 66.109375 41.796875 66.109375 
Q 29.296875 66.109375 22.65625 58.46875 
Q 16.015625 50.828125 16.015625 36.375 
Q 16.015625 21.96875 22.65625 14.328125 
Q 29.296875 6.6875 41.796875 6.6875 
Q 48.140625 6.6875 53.78125 8.984375 
Q 59.421875 11.28125 64.40625 15.921875 
L 64.40625 5.609375 
Q 59.234375 2.09375 53.4375 0.328125 
Q 47.65625 -1.421875 41.21875 -1.421875 
Q 24.65625 -1.421875 15.125 8.703125 
Q 5.609375 18.84375 5.609375 36.375 
Q 5.609375 53.953125 15.125 64.078125 
Q 24.65625 74.21875 41.21875 74.21875 
Q 47.75 74.21875 53.53125 72.484375 
Q 59.328125 70.75 64.40625 67.28125 
z
" id="DejaVuSans-67"/>
      <path d="M 30.421875 75.984375 
L 30.421875 -13.1875 
L 9.71875 -13.1875 
L 9.71875 -6.203125 
L 21.390625 -6.203125 
L 21.390625 69 
L 9.71875 69 
L 9.71875 75.984375 
z
" id="DejaVuSans-93"/>
     </defs>
     <g transform="translate(14.798438 380.234531)rotate(-90)scale(0.1 -0.1)">
      <use xlink:href="#DejaVuSans-84"/>
      <use x="60.818359" xlink:href="#DejaVuSans-101"/>
      <use x="122.341797" xlink:href="#DejaVuSans-109"/>
      <use x="219.753906" xlink:href="#DejaVuSans-112"/>
      <use x="283.230469" xlink:href="#DejaVuSans-101"/>
      <use x="344.753906" xlink:href="#DejaVuSans-114"/>
      <use x="385.867188" xlink:href="#DejaVuSans-97"/>
      <use x="447.146484" xlink:href="#DejaVuSans-116"/>
      <use x="486.355469" xlink:href="#DejaVuSans-117"/>
      <use x="549.734375" xlink:href="#DejaVuSans-114"/>
      <use x="590.847656" xlink:href="#DejaVuSans-32"/>
      <use x="622.634766" xlink:href="#DejaVuSans-49"/>
      <use x="686.257812" xlink:href="#DejaVuSans-32"/>
      <use x="718.044922" xlink:href="#DejaVuSans-91"/>
      <use x="757.058594" xlink:href="#DejaVuSans-176"/>
      <use x="807.058594" xlink:href="#DejaVuSans-67"/>
      <use x="876.882812" xlink:href="#DejaVuSans-93"/>
     </g>
    </g>
   </g>
   <g id="line2d_56">
    <path clip-path="url(#p04fdf0580a)" d="M 42.930145 461.669268 
L 47.584185 450.605854 
L 52.238225 457.981463 
L 56.892265 472.732683 
L 61.546305 443.230244 
L 66.200345 391.600976 
L 70.854385 351.035122 
L 75.508425 347.347317 
L 80.162465 310.469268 
L 84.816505 299.405854 
L 89.470545 269.903415 
L 94.124585 262.527805 
L 98.778625 269.903415 
L 103.432665 280.966829 
L 108.086704 255.152195 
L 112.740744 233.025366 
L 117.394784 236.713171 
L 122.048824 266.21561 
L 126.702864 303.093659 
L 131.356904 469.044878 
L 136.010944 472.732683 
L 140.664984 480.108293 
L 145.319024 494.859512 
L 149.973064 465.357073 
L 154.627104 498.547317 
L 159.281144 502.235122 
L 163.935184 502.235122 
L 168.589224 516.986341 
L 173.243264 491.171707 
L 177.897304 443.230244 
L 182.551344 373.161951 
L 187.205384 347.347317 
L 196.513464 280.966829 
L 201.167504 266.21561 
L 210.475584 221.961951 
L 215.129624 210.898537 
L 219.783664 210.898537 
L 224.437704 203.522927 
L 229.091744 203.522927 
L 233.745784 207.210732 
L 238.399824 203.522927 
L 243.053863 247.776585 
L 247.707903 336.283902 
L 257.015983 395.28878 
L 266.324063 439.542439 
L 270.978103 443.230244 
L 275.632143 480.108293 
L 280.286183 491.171707 
L 284.940223 446.918049 
L 289.594263 380.537561 
L 294.248303 354.722927 
L 298.902343 306.781463 
L 303.556383 255.152195 
L 312.864463 225.649756 
L 317.518503 196.147317 
L 322.172543 177.708293 
L 326.826583 137.142439 
L 331.480623 118.703415 
L 336.134663 118.703415 
L 340.788703 122.39122 
L 345.442743 129.766829 
L 350.096783 166.644878 
L 354.750823 210.898537 
L 359.404863 258.84 
L 364.058903 266.21561 
L 368.712943 303.093659 
L 373.366983 343.659512 
L 378.021022 358.410732 
L 382.675062 380.537561 
L 387.329102 339.971707 
L 391.983142 336.283902 
L 396.637182 351.035122 
L 401.291222 343.659512 
L 405.945262 303.093659 
L 410.599302 266.21561 
L 419.907382 214.586341 
L 424.561422 192.459512 
L 429.215462 159.269268 
L 433.869502 129.766829 
L 438.523542 107.64 
L 443.177582 118.703415 
L 447.831622 140.830244 
L 452.485662 221.961951 
L 457.139702 280.966829 
L 461.793742 332.596098 
L 466.447782 358.410732 
L 471.101822 362.098537 
L 475.755862 391.600976 
L 480.409902 435.854634 
L 485.063942 446.918049 
L 489.717982 469.044878 
L 494.372022 480.108293 
L 499.026062 498.547317 
L 503.680102 513.298537 
L 508.334142 483.796098 
L 512.988181 387.913171 
L 517.642221 336.283902 
L 522.296261 299.405854 
L 526.950301 277.279024 
L 531.604341 262.527805 
L 536.258381 214.586341 
L 540.912421 196.147317 
L 545.566461 181.396098 
L 550.220501 144.518049 
L 554.874541 122.39122 
L 559.528581 107.64 
L 568.836661 107.64 
L 573.490701 137.142439 
L 578.144741 162.957073 
L 587.452821 288.342439 
L 592.106861 325.220488 
L 596.760901 343.659512 
L 601.414941 354.722927 
L 606.068981 384.225366 
L 610.723021 343.659512 
L 620.031101 343.659512 
L 624.685141 314.157073 
L 629.339181 277.279024 
L 633.993221 262.527805 
L 638.647261 229.337561 
L 643.3013 207.210732 
L 647.95534 177.708293 
L 652.60938 155.581463 
L 657.26342 129.766829 
L 661.91746 181.396098 
L 666.5715 221.961951 
L 671.22554 391.600976 
L 675.87958 373.161951 
L 680.53362 351.035122 
L 685.18766 336.283902 
L 694.49574 343.659512 
L 699.14978 373.161951 
L 708.45786 410.04 
L 713.1119 369.474146 
L 717.76594 369.474146 
L 722.41998 387.913171 
L 731.72806 387.913171 
L 736.3821 369.474146 
L 741.03614 347.347317 
L 745.69018 317.844878 
L 750.34422 325.220488 
L 754.99826 310.469268 
L 759.6523 284.654634 
L 764.30634 269.903415 
L 768.96038 240.400976 
L 773.61442 203.522927 
L 778.268459 207.210732 
L 782.922499 192.459512 
L 787.576539 214.586341 
L 792.230579 192.459512 
L 796.884619 218.274146 
L 801.538659 229.337561 
L 806.192699 295.718049 
L 810.846739 317.844878 
L 815.500779 336.283902 
L 824.808859 387.913171 
L 829.462899 410.04 
L 834.116939 424.79122 
L 838.770979 432.166829 
L 843.425019 424.79122 
L 848.079059 395.28878 
L 852.733099 362.098537 
L 857.387139 325.220488 
L 862.041179 284.654634 
L 871.349259 255.152195 
L 876.003299 207.210732 
L 880.657339 174.020488 
L 885.311379 199.835122 
L 889.965419 236.713171 
L 894.619459 295.718049 
L 899.273499 369.474146 
L 903.927539 380.537561 
L 908.581579 376.849756 
L 927.197738 421.103415 
L 931.851778 406.352195 
L 931.851778 406.352195 
" style="fill:none;stroke:#ff0000;stroke-linecap:square;stroke-width:0.525;"/>
   </g>
   <g id="line2d_57">
    <path clip-path="url(#p04fdf0580a)" d="M 42.930145 483.796098 
L 47.584185 472.732683 
L 52.238225 472.732683 
L 56.892265 502.235122 
L 61.546305 483.796098 
L 66.200345 439.542439 
L 70.854385 373.161951 
L 75.508425 358.410732 
L 80.162465 339.971707 
L 84.816505 314.157073 
L 89.470545 292.030244 
L 94.124585 292.030244 
L 98.778625 288.342439 
L 103.432665 292.030244 
L 108.086704 269.903415 
L 112.740744 251.46439 
L 117.394784 269.903415 
L 122.048824 292.030244 
L 126.702864 457.981463 
L 131.356904 487.483902 
L 136.010944 491.171707 
L 140.664984 502.235122 
L 145.319024 520.674146 
L 149.973064 531.737561 
L 154.627104 520.674146 
L 159.281144 502.235122 
L 163.935184 546.48878 
L 168.589224 561.24 
L 173.243264 542.800976 
L 177.897304 480.108293 
L 182.551344 406.352195 
L 187.205384 391.600976 
L 191.859424 347.347317 
L 205.821544 258.84 
L 210.475584 244.08878 
L 215.129624 233.025366 
L 219.783664 229.337561 
L 224.437704 218.274146 
L 229.091744 225.649756 
L 233.745784 225.649756 
L 238.399824 221.961951 
L 243.053863 339.971707 
L 247.707903 369.474146 
L 252.361943 387.913171 
L 257.015983 421.103415 
L 261.670023 439.542439 
L 266.324063 446.918049 
L 270.978103 480.108293 
L 275.632143 502.235122 
L 280.286183 502.235122 
L 284.940223 494.859512 
L 289.594263 461.669268 
L 294.248303 376.849756 
L 298.902343 343.659512 
L 303.556383 292.030244 
L 308.210423 262.527805 
L 312.864463 244.08878 
L 317.518503 214.586341 
L 326.826583 170.332683 
L 331.480623 137.142439 
L 336.134663 129.766829 
L 340.788703 133.454634 
L 345.442743 159.269268 
L 350.096783 199.835122 
L 354.750823 266.21561 
L 359.404863 269.903415 
L 364.058903 325.220488 
L 368.712943 339.971707 
L 373.366983 358.410732 
L 382.675062 417.41561 
L 387.329102 387.913171 
L 391.983142 351.035122 
L 396.637182 373.161951 
L 401.291222 351.035122 
L 405.945262 339.971707 
L 410.599302 295.718049 
L 415.253342 258.84 
L 419.907382 233.025366 
L 424.561422 210.898537 
L 429.215462 192.459512 
L 433.869502 151.893659 
L 438.523542 118.703415 
L 443.177582 140.830244 
L 447.831622 214.586341 
L 457.139702 325.220488 
L 461.793742 369.474146 
L 466.447782 369.474146 
L 471.101822 391.600976 
L 475.755862 432.166829 
L 480.409902 443.230244 
L 485.063942 472.732683 
L 489.717982 480.108293 
L 494.372022 509.610732 
L 499.026062 509.610732 
L 503.680102 524.361951 
L 508.334142 505.922927 
L 512.988181 491.171707 
L 517.642221 354.722927 
L 522.296261 332.596098 
L 526.950301 306.781463 
L 531.604341 295.718049 
L 536.258381 240.400976 
L 540.912421 214.586341 
L 545.566461 192.459512 
L 550.220501 174.020488 
L 554.874541 140.830244 
L 559.528581 122.39122 
L 564.182621 111.327805 
L 573.490701 155.581463 
L 578.144741 236.713171 
L 582.798781 292.030244 
L 587.452821 321.532683 
L 592.106861 343.659512 
L 596.760901 358.410732 
L 601.414941 387.913171 
L 606.068981 387.913171 
L 610.723021 391.600976 
L 615.377061 354.722927 
L 620.031101 351.035122 
L 624.685141 336.283902 
L 629.339181 303.093659 
L 633.993221 284.654634 
L 638.647261 258.84 
L 643.3013 218.274146 
L 647.95534 221.961951 
L 652.60938 177.708293 
L 657.26342 181.396098 
L 661.91746 210.898537 
L 666.5715 343.659512 
L 671.22554 410.04 
L 675.87958 402.66439 
L 680.53362 391.600976 
L 685.18766 358.410732 
L 689.8417 351.035122 
L 694.49574 391.600976 
L 699.14978 424.79122 
L 703.80382 406.352195 
L 708.45786 421.103415 
L 713.1119 395.28878 
L 717.76594 384.225366 
L 722.41998 395.28878 
L 727.07402 398.976585 
L 731.72806 395.28878 
L 736.3821 387.913171 
L 741.03614 362.098537 
L 745.69018 347.347317 
L 750.34422 336.283902 
L 754.99826 336.283902 
L 759.6523 303.093659 
L 764.30634 284.654634 
L 768.96038 255.152195 
L 773.61442 233.025366 
L 778.268459 221.961951 
L 787.576539 221.961951 
L 796.884619 229.337561 
L 801.538659 306.781463 
L 806.192699 314.157073 
L 810.846739 347.347317 
L 815.500779 354.722927 
L 820.154819 391.600976 
L 824.808859 410.04 
L 834.116939 432.166829 
L 838.770979 439.542439 
L 848.079059 424.79122 
L 857.387139 365.786341 
L 862.041179 332.596098 
L 866.695219 280.966829 
L 871.349259 269.903415 
L 876.003299 266.21561 
L 880.657339 207.210732 
L 885.311379 203.522927 
L 889.965419 284.654634 
L 894.619459 384.225366 
L 899.273499 384.225366 
L 903.927539 402.66439 
L 908.581579 398.976585 
L 913.235618 398.976585 
L 917.889658 417.41561 
L 922.543698 424.79122 
L 927.197738 439.542439 
L 931.851778 439.542439 
L 931.851778 439.542439 
" style="fill:none;stroke:#ff0000;stroke-linecap:square;stroke-width:0.525;"/>
   </g>
   <g id="line2d_58">
    <path clip-path="url(#p04fdf0580a)" d="M 42.930145 475.19122 
L 47.584185 459.210732 
L 52.238225 462.283902 
L 56.892265 489.942439 
L 61.546305 472.118049 
L 66.200345 422.947317 
L 70.854385 363.327805 
L 75.508425 353.493659 
L 80.162465 325.835122 
L 84.816505 306.166829 
L 89.470545 280.966829 
L 94.124585 282.196098 
L 98.778625 281.581463 
L 103.432665 286.498537 
L 108.086704 264.986341 
L 112.740744 241.01561 
L 117.394784 258.84 
L 122.048824 278.508293 
L 131.356904 482.566829 
L 136.010944 483.796098 
L 140.664984 489.327805 
L 145.319024 506.537561 
L 149.973064 502.849756 
L 154.627104 511.454634 
L 159.281144 502.235122 
L 163.935184 526.205854 
L 168.589224 534.810732 
L 173.243264 521.28878 
L 177.897304 467.200976 
L 182.551344 387.913171 
L 187.205384 370.703415 
L 191.859424 330.137561 
L 196.513464 304.322927 
L 201.167504 279.737561 
L 205.821544 252.079024 
L 210.475584 232.410732 
L 215.129624 223.19122 
L 219.783664 216.430244 
L 224.437704 213.357073 
L 229.091744 218.88878 
L 233.745784 212.127805 
L 238.399824 212.742439 
L 243.053863 298.176585 
L 247.707903 349.19122 
L 252.361943 375.620488 
L 257.015983 404.508293 
L 261.670023 425.405854 
L 266.324063 442.000976 
L 270.978103 457.981463 
L 275.632143 491.171707 
L 280.286183 495.474146 
L 284.940223 470.274146 
L 289.594263 429.093659 
L 294.248303 364.557073 
L 298.902343 323.99122 
L 303.556383 272.976585 
L 308.210423 249.620488 
L 312.864463 233.64 
L 317.518503 205.981463 
L 322.172543 188.771707 
L 326.826583 148.820488 
L 331.480623 128.537561 
L 336.134663 121.776585 
L 340.788703 127.308293 
L 345.442743 145.132683 
L 350.096783 185.698537 
L 354.750823 238.557073 
L 359.404863 262.527805 
L 364.058903 303.093659 
L 368.712943 322.147317 
L 373.366983 349.19122 
L 378.021022 374.39122 
L 382.675062 398.361951 
L 387.329102 364.557073 
L 391.983142 343.044878 
L 396.637182 360.869268 
L 401.291222 346.118049 
L 405.945262 317.230244 
L 410.599302 276.66439 
L 415.253342 245.932683 
L 419.907382 223.19122 
L 424.561422 204.752195 
L 429.215462 180.781463 
L 433.869502 142.674146 
L 438.523542 113.786341 
L 443.177582 133.454634 
L 447.831622 166.644878 
L 452.485662 243.474146 
L 457.139702 303.093659 
L 461.793742 351.035122 
L 466.447782 363.942439 
L 471.101822 372.547317 
L 475.755862 413.727805 
L 480.409902 441.386341 
L 485.063942 462.898537 
L 489.717982 474.576585 
L 494.372022 496.703415 
L 499.026062 502.849756 
L 503.680102 518.830244 
L 508.334142 494.244878 
L 512.988181 451.220488 
L 517.642221 345.503415 
L 522.296261 316.61561 
L 526.950301 294.48878 
L 531.604341 277.893659 
L 536.258381 233.025366 
L 540.912421 205.981463 
L 545.566461 186.313171 
L 550.220501 157.425366 
L 554.874541 130.996098 
L 559.528581 113.786341 
L 564.182621 110.098537 
L 568.836661 118.703415 
L 573.490701 145.747317 
L 578.144741 206.596098 
L 582.798781 250.235122 
L 587.452821 302.479024 
L 592.106861 335.669268 
L 596.760901 349.19122 
L 601.414941 373.161951 
L 606.068981 385.454634 
L 610.723021 367.630244 
L 615.377061 348.576585 
L 620.031101 347.347317 
L 624.685141 328.293659 
L 629.339181 288.342439 
L 633.993221 274.205854 
L 638.647261 247.161951 
L 643.3013 213.971707 
L 647.95534 201.06439 
L 652.60938 166.030244 
L 657.26342 159.269268 
L 661.91746 191.844878 
L 666.5715 279.737561 
L 671.22554 396.518049 
L 675.87958 391.600976 
L 680.53362 368.244878 
L 685.18766 346.118049 
L 689.8417 346.732683 
L 694.49574 357.796098 
L 699.14978 389.757073 
L 703.80382 397.747317 
L 708.45786 414.957073 
L 713.1119 375.620488 
L 717.76594 374.39122 
L 722.41998 390.986341 
L 727.07402 392.830244 
L 731.72806 390.986341 
L 736.3821 381.766829 
L 741.03614 352.879024 
L 745.69018 335.054634 
L 750.34422 328.293659 
L 754.99826 324.605854 
L 759.6523 295.103415 
L 764.30634 274.820488 
L 768.96038 249.620488 
L 773.61442 220.118049 
L 778.268459 217.044878 
L 782.922499 208.44 
L 787.576539 215.81561 
L 792.230579 205.366829 
L 796.884619 223.805854 
L 801.538659 264.371707 
L 806.192699 306.166829 
L 810.846739 329.522927 
L 815.500779 344.274146 
L 820.154819 379.922927 
L 824.808859 402.049756 
L 829.462899 416.800976 
L 834.116939 429.708293 
L 838.770979 435.854634 
L 843.425019 429.093659 
L 848.079059 411.269268 
L 857.387139 341.81561 
L 862.041179 310.469268 
L 866.695219 275.435122 
L 871.349259 263.142439 
L 876.003299 246.547317 
L 880.657339 193.074146 
L 885.311379 202.908293 
L 889.965419 253.922927 
L 894.619459 345.503415 
L 899.273499 379.308293 
L 903.927539 392.830244 
L 908.581579 386.069268 
L 913.235618 392.830244 
L 917.889658 406.352195 
L 922.543698 416.186341 
L 927.197738 430.322927 
L 931.851778 423.561951 
L 931.851778 423.561951 
" style="fill:none;stroke:#ff0000;stroke-linecap:square;stroke-width:0.9;"/>
   </g>
   <g id="patch_3">
    <path d="M 40.603125 583.92 
L 40.603125 84.96 
" style="fill:none;stroke:#000000;stroke-linecap:square;stroke-linejoin:miter;stroke-width:0.8;"/>
   </g>
   <g id="patch_4">
    <path d="M 933.403125 583.92 
L 933.403125 84.96 
" style="fill:none;stroke:#000000;stroke-linecap:square;stroke-linejoin:miter;stroke-width:0.8;"/>
   </g>
   <g id="patch_5">
    <path d="M 40.603125 583.92 
L 933.403125 583.92 
" style="fill:none;stroke:#000000;stroke-linecap:square;stroke-linejoin:miter;stroke-width:0.8;"/>
   </g>
   <g id="patch_6">
    <path d="M 40.603125 84.96 
L 933.403125 84.96 
" style="fill:none;stroke:#000000;stroke-linecap:square;stroke-linejoin:miter;stroke-width:0.8;"/>
   </g>
  </g>
  <g id="axes_2">
   <g id="matplotlib.axis_3">
    <g id="ytick_8">
     <g id="line2d_59">
      <defs>
       <path d="M 0 0 
L 3.5 0 
" id="mcd47b4c909" style="stroke:#000000;stroke-width:0.8;"/>
      </defs>
      <g>
       <use style="stroke:#000000;stroke-width:0.8;" x="933.403125" xlink:href="#mcd47b4c909" y="583.92"/>
      </g>
     </g>
     <g id="text_33">
      <!-- 0.0 -->
      <g transform="translate(940.403125 587.719219)scale(0.1 -0.1)">
       <use xlink:href="#DejaVuSans-48"/>
       <use x="63.623047" xlink:href="#DejaVuSans-46"/>
       <use x="95.410156" xlink:href="#DejaVuSans-48"/>
      </g>
     </g>
    </g>
    <g id="ytick_9">
     <g id="line2d_60">
      <g>
       <use style="stroke:#000000;stroke-width:0.8;" x="933.403125" xlink:href="#mcd47b4c909" y="484.128"/>
      </g>
     </g>
     <g id="text_34">
      <!-- 0.2 -->
      <g transform="translate(940.403125 487.927219)scale(0.1 -0.1)">
       <use xlink:href="#DejaVuSans-48"/>
       <use x="63.623047" xlink:href="#DejaVuSans-46"/>
       <use x="95.410156" xlink:href="#DejaVuSans-50"/>
      </g>
     </g>
    </g>
    <g id="ytick_10">
     <g id="line2d_61">
      <g>
       <use style="stroke:#000000;stroke-width:0.8;" x="933.403125" xlink:href="#mcd47b4c909" y="384.336"/>
      </g>
     </g>
     <g id="text_35">
      <!-- 0.4 -->
      <g transform="translate(940.403125 388.135219)scale(0.1 -0.1)">
       <use xlink:href="#DejaVuSans-48"/>
       <use x="63.623047" xlink:href="#DejaVuSans-46"/>
       <use x="95.410156" xlink:href="#DejaVuSans-52"/>
      </g>
     </g>
    </g>
    <g id="ytick_11">
     <g id="line2d_62">
      <g>
       <use style="stroke:#000000;stroke-width:0.8;" x="933.403125" xlink:href="#mcd47b4c909" y="284.544"/>
      </g>
     </g>
     <g id="text_36">
      <!-- 0.6 -->
      <g transform="translate(940.403125 288.343219)scale(0.1 -0.1)">
       <use xlink:href="#DejaVuSans-48"/>
       <use x="63.623047" xlink:href="#DejaVuSans-46"/>
       <use x="95.410156" xlink:href="#DejaVuSans-54"/>
      </g>
     </g>
    </g>
    <g id="ytick_12">
     <g id="line2d_63">
      <g>
       <use style="stroke:#000000;stroke-width:0.8;" x="933.403125" xlink:href="#mcd47b4c909" y="184.752"/>
      </g>
     </g>
     <g id="text_37">
      <!-- 0.8 -->
      <g transform="translate(940.403125 188.551219)scale(0.1 -0.1)">
       <use xlink:href="#DejaVuSans-48"/>
       <use x="63.623047" xlink:href="#DejaVuSans-46"/>
       <use x="95.410156" xlink:href="#DejaVuSans-56"/>
      </g>
     </g>
    </g>
    <g id="ytick_13">
     <g id="line2d_64">
      <g>
       <use style="stroke:#000000;stroke-width:0.8;" x="933.403125" xlink:href="#mcd47b4c909" y="84.96"/>
      </g>
     </g>
     <g id="text_38">
      <!-- 1.0 -->
      <g transform="translate(940.403125 88.759219)scale(0.1 -0.1)">
       <use xlink:href="#DejaVuSans-49"/>
       <use x="63.623047" xlink:href="#DejaVuSans-46"/>
       <use x="95.410156" xlink:href="#DejaVuSans-48"/>
      </g>
     </g>
    </g>
   </g>
   <g id="patch_7">
    <path d="M 40.603125 583.92 
L 40.603125 84.96 
" style="fill:none;stroke:#000000;stroke-linecap:square;stroke-linejoin:miter;stroke-width:0.8;"/>
   </g>
   <g id="patch_8">
    <path d="M 933.403125 583.92 
L 933.403125 84.96 
" style="fill:none;stroke:#000000;stroke-linecap:square;stroke-linejoin:miter;stroke-width:0.8;"/>
   </g>
   <g id="patch_9">
    <path d="M 40.603125 583.92 
L 933.403125 583.92 
" style="fill:none;stroke:#000000;stroke-linecap:square;stroke-linejoin:miter;stroke-width:0.8;"/>
   </g>
   <g id="patch_10">
    <path d="M 40.603125 84.96 
L 933.403125 84.96 
" style="fill:none;stroke:#000000;stroke-linecap:square;stroke-linejoin:miter;stroke-width:0.8;"/>
   </g>
  </g>
  <g id="text_39">
   <!-- Letzte 7 Tage -->
   <defs>
    <path d="M 9.8125 72.90625 
L 19.671875 72.90625 
L 19.671875 8.296875 
L 55.171875 8.296875 
L 55.171875 0 
L 9.8125 0 
z
" id="DejaVuSans-76"/>
    <path d="M 5.515625 54.6875 
L 48.1875 54.6875 
L 48.1875 46.484375 
L 14.40625 7.171875 
L 48.1875 7.171875 
L 48.1875 0 
L 4.296875 0 
L 4.296875 8.203125 
L 38.09375 47.515625 
L 5.515625 47.515625 
z
" id="DejaVuSans-122"/>
    <path d="M 45.40625 27.984375 
Q 45.40625 37.75 41.375 43.109375 
Q 37.359375 48.484375 30.078125 48.484375 
Q 22.859375 48.484375 18.828125 43.109375 
Q 14.796875 37.75 14.796875 27.984375 
Q 14.796875 18.265625 18.828125 12.890625 
Q 22.859375 7.515625 30.078125 7.515625 
Q 37.359375 7.515625 41.375 12.890625 
Q 45.40625 18.265625 45.40625 27.984375 
z
M 54.390625 6.78125 
Q 54.390625 -7.171875 48.1875 -13.984375 
Q 42 -20.796875 29.203125 -20.796875 
Q 24.46875 -20.796875 20.265625 -20.09375 
Q 16.0625 -19.390625 12.109375 -17.921875 
L 12.109375 -9.1875 
Q 16.0625 -11.328125 19.921875 -12.34375 
Q 23.78125 -13.375 27.78125 -13.375 
Q 36.625 -13.375 41.015625 -8.765625 
Q 45.40625 -4.15625 45.40625 5.171875 
L 45.40625 9.625 
Q 42.625 4.78125 38.28125 2.390625 
Q 33.9375 0 27.875 0 
Q 17.828125 0 11.671875 7.65625 
Q 5.515625 15.328125 5.515625 27.984375 
Q 5.515625 40.671875 11.671875 48.328125 
Q 17.828125 56 27.875 56 
Q 33.9375 56 38.28125 53.609375 
Q 42.625 51.21875 45.40625 46.390625 
L 45.40625 54.6875 
L 54.390625 54.6875 
z
" id="DejaVuSans-103"/>
   </defs>
   <g transform="translate(363.168125 31.515)scale(0.32 -0.32)">
    <use xlink:href="#DejaVuSans-76"/>
    <use x="55.697266" xlink:href="#DejaVuSans-101"/>
    <use x="117.220703" xlink:href="#DejaVuSans-116"/>
    <use x="156.429688" xlink:href="#DejaVuSans-122"/>
    <use x="208.919922" xlink:href="#DejaVuSans-116"/>
    <use x="248.128906" xlink:href="#DejaVuSans-101"/>
    <use x="309.652344" xlink:href="#DejaVuSans-32"/>
    <use x="341.439453" xlink:href="#DejaVuSans-55"/>
    <use x="405.0625" xlink:href="#DejaVuSans-32"/>
    <use x="436.849609" xlink:href="#DejaVuSans-84"/>
    <use x="497.683594" xlink:href="#DejaVuSans-97"/>
    <use x="558.962891" xlink:href="#DejaVuSans-103"/>
    <use x="622.439453" xlink:href="#DejaVuSans-101"/>
   </g>
  </g>
 </g>
 <defs>
  <clipPath id="p04fdf0580a">
   <rect height="498.96" width="892.8" x="40.603125" y="84.96"/>
  </clipPath>
 </defs>
</svg>
